solid ascii
  facet normal 9.940359e-007 -9.061830e-001 -4.228858e-001
    outer loop
      vertex   1.157500e+002 8.525000e+001 -3.400000e+000
      vertex   1.122000e+002 8.455000e+001 -1.900000e+000
      vertex   1.122000e+002 8.595000e+001 -4.900001e+000
    endloop
  endfacet
  facet normal 0.000000e+000 1.000000e+000 -0.000000e+000
    outer loop
      vertex   1.193000e+002 8.815000e+001 6.900000e+000
      vertex   1.193000e+002 8.815000e+001 -4.900001e+000
      vertex   1.122000e+002 8.815000e+001 6.900000e+000
    endloop
  endfacet
  facet normal 0.000000e+000 1.000000e+000 0.000000e+000
    outer loop
      vertex   1.122000e+002 8.815000e+001 6.900000e+000
      vertex   1.193000e+002 8.815000e+001 -4.900001e+000
      vertex   1.122000e+002 8.815000e+001 -4.900001e+000
    endloop
  endfacet
  facet normal 1.000000e+000 0.000000e+000 0.000000e+000
    outer loop
      vertex   1.193000e+002 1.585000e+001 6.800000e+000
      vertex   1.193000e+002 1.585000e+001 -4.900001e+000
      vertex   1.193000e+002 1.885000e+001 -7.629395e-007
    endloop
  endfacet
  facet normal -9.737494e-007 -9.061830e-001 -4.228858e-001
    outer loop
      vertex   1.157500e+002 8.525000e+001 -3.400000e+000
      vertex   1.193000e+002 8.595000e+001 -4.900001e+000
      vertex   1.193000e+002 8.455000e+001 -1.900000e+000
    endloop
  endfacet
  facet normal 1.000000e+000 0.000000e+000 0.000000e+000
    outer loop
      vertex   1.193000e+002 1.885000e+001 -7.629395e-007
      vertex   1.193000e+002 1.585000e+001 -4.900001e+000
      vertex   1.193000e+002 2.045000e+001 -1.900000e+000
    endloop
  endfacet
  facet normal 1.000000e+000 0.000000e+000 0.000000e+000
    outer loop
      vertex   1.193000e+002 2.045000e+001 -1.900000e+000
      vertex   1.193000e+002 1.585000e+001 -4.900001e+000
      vertex   1.193000e+002 1.885000e+001 -4.900001e+000
    endloop
  endfacet
  facet normal -1.000000e+000 0.000000e+000 0.000000e+000
    outer loop
      vertex   1.122000e+002 8.815000e+001 6.900000e+000
      vertex   1.122000e+002 8.815000e+001 -4.900001e+000
      vertex   1.122000e+002 8.615000e+001 6.900000e+000
    endloop
  endfacet
  facet normal 0.000000e+000 0.000000e+000 -1.000000e+000
    outer loop
      vertex   1.157500e+002 1.735000e+001 -4.900001e+000
      vertex   1.122000e+002 1.885000e+001 -4.900001e+000
      vertex   1.193000e+002 1.885000e+001 -4.900001e+000
    endloop
  endfacet
  facet normal 0.000000e+000 -0.000000e+000 -1.000000e+000
    outer loop
      vertex   1.157500e+002 1.735000e+001 -4.900001e+000
      vertex   1.193000e+002 1.885000e+001 -4.900001e+000
      vertex   1.193000e+002 1.585000e+001 -4.900001e+000
    endloop
  endfacet
  facet normal 0.000000e+000 0.000000e+000 -1.000000e+000
    outer loop
      vertex   1.157500e+002 1.735000e+001 -4.900001e+000
      vertex   1.193000e+002 1.585000e+001 -4.900001e+000
      vertex   1.122000e+002 1.585000e+001 -4.900001e+000
    endloop
  endfacet
  facet normal 0.000000e+000 0.000000e+000 -1.000000e+000
    outer loop
      vertex   1.157500e+002 1.735000e+001 -4.900001e+000
      vertex   1.122000e+002 1.585000e+001 -4.900001e+000
      vertex   1.122000e+002 1.885000e+001 -4.900001e+000
    endloop
  endfacet
  facet normal -1.000000e+000 0.000000e+000 0.000000e+000
    outer loop
      vertex   1.122000e+002 2.045000e+001 -1.900000e+000
      vertex   1.122000e+002 1.885000e+001 -4.900001e+000
      vertex   1.122000e+002 1.585000e+001 -4.900001e+000
    endloop
  endfacet
  facet normal -1.000000e+000 -0.000000e+000 0.000000e+000
    outer loop
      vertex   1.122000e+002 1.885000e+001 -7.629395e-007
      vertex   1.122000e+002 2.045000e+001 -1.900000e+000
      vertex   1.122000e+002 1.585000e+001 -4.900001e+000
    endloop
  endfacet
  facet normal -1.000000e+000 0.000000e+000 0.000000e+000
    outer loop
      vertex   1.122000e+002 8.615000e+001 6.900000e+000
      vertex   1.122000e+002 8.815000e+001 -4.900001e+000
      vertex   1.122000e+002 8.615000e+001 -7.629395e-007
    endloop
  endfacet
  facet normal 0.000000e+000 0.000000e+000 -1.000000e+000
    outer loop
      vertex   1.157500e+002 8.705000e+001 -4.900001e+000
      vertex   1.193000e+002 8.595000e+001 -4.900001e+000
      vertex   1.122000e+002 8.595000e+001 -4.900001e+000
    endloop
  endfacet
  facet normal -1.000000e+000 0.000000e+000 0.000000e+000
    outer loop
      vertex   1.122000e+002 8.615000e+001 -7.629395e-007
      vertex   1.122000e+002 8.815000e+001 -4.900001e+000
      vertex   1.122000e+002 8.605000e+001 -7.629395e-007
    endloop
  endfacet
  facet normal -1.000000e+000 0.000000e+000 0.000000e+000
    outer loop
      vertex   1.122000e+002 8.605000e+001 -7.629395e-007
      vertex   1.122000e+002 8.815000e+001 -4.900001e+000
      vertex   1.122000e+002 8.605000e+001 -8.000000e-001
    endloop
  endfacet
  facet normal -1.000000e+000 0.000000e+000 0.000000e+000
    outer loop
      vertex   1.122000e+002 8.605000e+001 -8.000000e-001
      vertex   1.122000e+002 8.815000e+001 -4.900001e+000
      vertex   1.122000e+002 8.455000e+001 -8.000000e-001
    endloop
  endfacet
  facet normal -1.000000e+000 0.000000e+000 0.000000e+000
    outer loop
      vertex   1.122000e+002 8.455000e+001 -8.000000e-001
      vertex   1.122000e+002 8.815000e+001 -4.900001e+000
      vertex   1.122000e+002 8.455000e+001 -1.900000e+000
    endloop
  endfacet
  facet normal -1.000000e+000 0.000000e+000 0.000000e+000
    outer loop
      vertex   1.122000e+002 8.815000e+001 -4.900001e+000
      vertex   1.122000e+002 8.595000e+001 -4.900001e+000
      vertex   1.122000e+002 8.455000e+001 -1.900000e+000
    endloop
  endfacet
  facet normal 0.000000e+000 -1.000000e+000 0.000000e+000
    outer loop
      vertex   1.193000e+002 1.585000e+001 6.800000e+000
      vertex   1.122000e+002 1.585000e+001 6.900000e+000
      vertex   1.193000e+002 1.585000e+001 -4.900001e+000
    endloop
  endfacet
  facet normal 0.000000e+000 -1.000000e+000 0.000000e+000
    outer loop
      vertex   1.122000e+002 1.585000e+001 6.900000e+000
      vertex   1.122000e+002 1.585000e+001 -4.900001e+000
      vertex   1.193000e+002 1.585000e+001 -4.900001e+000
    endloop
  endfacet
  facet normal -1.000000e+000 -0.000000e+000 0.000000e+000
    outer loop
      vertex   1.122000e+002 1.585000e+001 6.900000e+000
      vertex   1.122000e+002 1.885000e+001 -7.629395e-007
      vertex   1.122000e+002 1.585000e+001 -4.900001e+000
    endloop
  endfacet
  facet normal 0.000000e+000 -0.000000e+000 -1.000000e+000
    outer loop
      vertex   1.157500e+002 8.705000e+001 -4.900001e+000
      vertex   1.193000e+002 8.815000e+001 -4.900001e+000
      vertex   1.193000e+002 8.595000e+001 -4.900001e+000
    endloop
  endfacet
  facet normal 0.000000e+000 -9.061838e-001 -4.228839e-001
    outer loop
      vertex   1.157500e+002 8.525000e+001 -3.400000e+000
      vertex   1.122000e+002 8.595000e+001 -4.900001e+000
      vertex   1.193000e+002 8.595000e+001 -4.900001e+000
    endloop
  endfacet
  facet normal 1.000000e+000 -0.000000e+000 0.000000e+000
    outer loop
      vertex   1.193000e+002 8.455000e+001 -8.000000e-001
      vertex   1.193000e+002 8.455000e+001 -1.900000e+000
      vertex   1.193000e+002 8.815000e+001 -4.900001e+000
    endloop
  endfacet
  facet normal 1.000000e+000 -0.000000e+000 0.000000e+000
    outer loop
      vertex   1.193000e+002 8.615000e+001 6.900000e+000
      vertex   1.193000e+002 8.615000e+001 -7.629395e-007
      vertex   1.193000e+002 8.815000e+001 -4.900001e+000
    endloop
  endfacet
  facet normal -2.567886e-007 8.823529e-001 -4.705883e-001
    outer loop
      vertex   1.157500e+002 1.965000e+001 -3.400000e+000
      vertex   1.193000e+002 2.045000e+001 -1.900000e+000
      vertex   1.193000e+002 1.885000e+001 -4.900001e+000
    endloop
  endfacet
  facet normal 0.000000e+000 0.000000e+000 -1.000000e+000
    outer loop
      vertex   1.157500e+002 8.705000e+001 -4.900001e+000
      vertex   1.122000e+002 8.595000e+001 -4.900001e+000
      vertex   1.122000e+002 8.815000e+001 -4.900001e+000
    endloop
  endfacet
  facet normal 0.000000e+000 8.823531e-001 -4.705878e-001
    outer loop
      vertex   1.157500e+002 1.965000e+001 -3.400000e+000
      vertex   1.193000e+002 1.885000e+001 -4.900001e+000
      vertex   1.122000e+002 1.885000e+001 -4.900001e+000
    endloop
  endfacet
  facet normal 1.000000e+000 -0.000000e+000 0.000000e+000
    outer loop
      vertex   1.193000e+002 8.815000e+001 6.900000e+000
      vertex   1.193000e+002 8.615000e+001 6.900000e+000
      vertex   1.193000e+002 8.815000e+001 -4.900001e+000
    endloop
  endfacet
  facet normal 2.567886e-007 8.823529e-001 -4.705883e-001
    outer loop
      vertex   1.157500e+002 1.965000e+001 -3.400000e+000
      vertex   1.122000e+002 1.885000e+001 -4.900001e+000
      vertex   1.122000e+002 2.045000e+001 -1.900000e+000
    endloop
  endfacet
  facet normal 1.000000e+000 -0.000000e+000 0.000000e+000
    outer loop
      vertex   1.193000e+002 8.615000e+001 -7.629395e-007
      vertex   1.193000e+002 8.605000e+001 -7.629395e-007
      vertex   1.193000e+002 8.815000e+001 -4.900001e+000
    endloop
  endfacet
  facet normal 1.000000e+000 -0.000000e+000 0.000000e+000
    outer loop
      vertex   1.193000e+002 8.605000e+001 -7.629395e-007
      vertex   1.193000e+002 8.605000e+001 -8.000000e-001
      vertex   1.193000e+002 8.815000e+001 -4.900001e+000
    endloop
  endfacet
  facet normal 1.000000e+000 -0.000000e+000 0.000000e+000
    outer loop
      vertex   1.193000e+002 8.605000e+001 -8.000000e-001
      vertex   1.193000e+002 8.455000e+001 -8.000000e-001
      vertex   1.193000e+002 8.815000e+001 -4.900001e+000
    endloop
  endfacet
  facet normal 0.000000e+000 0.000000e+000 -1.000000e+000
    outer loop
      vertex   1.157500e+002 8.705000e+001 -4.900001e+000
      vertex   1.122000e+002 8.815000e+001 -4.900001e+000
      vertex   1.193000e+002 8.815000e+001 -4.900001e+000
    endloop
  endfacet
  facet normal 1.000000e+000 0.000000e+000 0.000000e+000
    outer loop
      vertex   1.193000e+002 8.815000e+001 -4.900001e+000
      vertex   1.193000e+002 8.455000e+001 -1.900000e+000
      vertex   1.193000e+002 8.595000e+001 -4.900001e+000
    endloop
  endfacet
  facet normal -0.000000e+000 -9.061821e-001 -4.228877e-001
    outer loop
      vertex   1.157500e+002 8.525000e+001 -3.400000e+000
      vertex   1.193000e+002 8.455000e+001 -1.900000e+000
      vertex   1.122000e+002 8.455000e+001 -1.900000e+000
    endloop
  endfacet
  facet normal 0.000000e+000 8.823527e-001 -4.705888e-001
    outer loop
      vertex   1.157500e+002 1.965000e+001 -3.400000e+000
      vertex   1.122000e+002 2.045000e+001 -1.900000e+000
      vertex   1.193000e+002 2.045000e+001 -1.900000e+000
    endloop
  endfacet
  facet normal 0.000000e+000 -1.000000e+000 0.000000e+000
    outer loop
      vertex   1.157500e+002 8.455000e+001 -1.349999e+000
      vertex   1.122000e+002 8.455000e+001 -1.900000e+000
      vertex   1.193000e+002 8.455000e+001 -1.900000e+000
    endloop
  endfacet
  facet normal 0.000000e+000 -1.000000e+000 0.000000e+000
    outer loop
      vertex   1.157500e+002 8.455000e+001 -1.349999e+000
      vertex   1.122000e+002 8.455000e+001 -8.000000e-001
      vertex   1.122000e+002 8.455000e+001 -1.900000e+000
    endloop
  endfacet
  facet normal 0.000000e+000 1.000000e+000 0.000000e+000
    outer loop
      vertex   1.157500e+002 2.045000e+001 -9.499996e-001
      vertex   1.193000e+002 2.045000e+001 -7.629395e-007
      vertex   1.193000e+002 2.045000e+001 -1.900000e+000
    endloop
  endfacet
  facet normal -1.000000e+000 0.000000e+000 0.000000e+000
    outer loop
      vertex   1.122000e+002 2.045000e+001 -7.629395e-007
      vertex   1.122000e+002 2.045000e+001 -1.900000e+000
      vertex   1.122000e+002 1.885000e+001 -7.629395e-007
    endloop
  endfacet
  facet normal 0.000000e+000 -1.000000e+000 0.000000e+000
    outer loop
      vertex   1.157500e+002 8.455000e+001 -1.349999e+000
      vertex   1.193000e+002 8.455000e+001 -1.900000e+000
      vertex   1.193000e+002 8.455000e+001 -8.000000e-001
    endloop
  endfacet
  facet normal 1.000000e+000 -0.000000e+000 0.000000e+000
    outer loop
      vertex   1.193000e+002 2.045000e+001 -7.629395e-007
      vertex   1.193000e+002 1.885000e+001 -7.629395e-007
      vertex   1.193000e+002 2.045000e+001 -1.900000e+000
    endloop
  endfacet
  facet normal 0.000000e+000 1.000000e+000 0.000000e+000
    outer loop
      vertex   1.157500e+002 2.045000e+001 -9.499996e-001
      vertex   1.122000e+002 2.045000e+001 -1.900000e+000
      vertex   1.122000e+002 2.045000e+001 -7.629395e-007
    endloop
  endfacet
  facet normal 0.000000e+000 1.000000e+000 0.000000e+000
    outer loop
      vertex   1.157500e+002 2.045000e+001 -9.499996e-001
      vertex   1.193000e+002 2.045000e+001 -1.900000e+000
      vertex   1.122000e+002 2.045000e+001 -1.900000e+000
    endloop
  endfacet
  facet normal -0.000000e+000 -1.000000e+000 0.000000e+000
    outer loop
      vertex   1.157500e+002 8.455000e+001 -1.349999e+000
      vertex   1.193000e+002 8.455000e+001 -8.000000e-001
      vertex   1.122000e+002 8.455000e+001 -8.000000e-001
    endloop
  endfacet
  facet normal -0.000000e+000 1.000000e+000 0.000000e+000
    outer loop
      vertex   1.157500e+002 2.045000e+001 -9.499996e-001
      vertex   1.122000e+002 2.045000e+001 -7.629395e-007
      vertex   1.193000e+002 2.045000e+001 -7.629395e-007
    endloop
  endfacet
  facet normal 0.000000e+000 -1.000000e+000 0.000000e+000
    outer loop
      vertex   1.157500e+002 8.605000e+001 -4.000004e-001
      vertex   1.122000e+002 8.605000e+001 -7.629395e-007
      vertex   1.122000e+002 8.605000e+001 -8.000000e-001
    endloop
  endfacet
  facet normal 0.000000e+000 0.000000e+000 1.000000e+000
    outer loop
      vertex   1.157500e+002 8.530000e+001 -8.000000e-001
      vertex   1.193000e+002 8.605000e+001 -8.000000e-001
      vertex   1.122000e+002 8.605000e+001 -8.000000e-001
    endloop
  endfacet
  facet normal 0.000000e+000 0.000000e+000 1.000000e+000
    outer loop
      vertex   1.157500e+002 8.530000e+001 -8.000000e-001
      vertex   1.122000e+002 8.605000e+001 -8.000000e-001
      vertex   1.122000e+002 8.455000e+001 -8.000000e-001
    endloop
  endfacet
  facet normal 0.000000e+000 -0.000000e+000 1.000000e+000
    outer loop
      vertex   1.157500e+002 8.530000e+001 -8.000000e-001
      vertex   1.193000e+002 8.455000e+001 -8.000000e-001
      vertex   1.193000e+002 8.605000e+001 -8.000000e-001
    endloop
  endfacet
  facet normal 0.000000e+000 -1.000000e+000 0.000000e+000
    outer loop
      vertex   1.157500e+002 8.605000e+001 -4.000004e-001
      vertex   1.122000e+002 8.605000e+001 -8.000000e-001
      vertex   1.193000e+002 8.605000e+001 -8.000000e-001
    endloop
  endfacet
  facet normal 0.000000e+000 0.000000e+000 1.000000e+000
    outer loop
      vertex   1.157500e+002 8.530000e+001 -8.000000e-001
      vertex   1.122000e+002 8.455000e+001 -8.000000e-001
      vertex   1.193000e+002 8.455000e+001 -8.000000e-001
    endloop
  endfacet
  facet normal 0.000000e+000 -1.000000e+000 0.000000e+000
    outer loop
      vertex   1.157500e+002 8.605000e+001 -4.000004e-001
      vertex   1.193000e+002 8.605000e+001 -8.000000e-001
      vertex   1.193000e+002 8.605000e+001 -7.629395e-007
    endloop
  endfacet
  facet normal -0.000000e+000 -1.000000e+000 0.000000e+000
    outer loop
      vertex   1.157500e+002 8.605000e+001 -4.000004e-001
      vertex   1.193000e+002 8.605000e+001 -7.629395e-007
      vertex   1.122000e+002 8.605000e+001 -7.629395e-007
    endloop
  endfacet
  facet normal 0.000000e+000 -0.000000e+000 1.000000e+000
    outer loop
      vertex   1.157500e+002 8.610000e+001 -7.629395e-007
      vertex   1.193000e+002 8.605000e+001 -7.629395e-007
      vertex   1.193000e+002 8.615000e+001 -7.629395e-007
    endloop
  endfacet
  facet normal 0.000000e+000 0.000000e+000 1.000000e+000
    outer loop
      vertex   1.157500e+002 8.610000e+001 -7.629395e-007
      vertex   1.122000e+002 8.605000e+001 -7.629395e-007
      vertex   1.193000e+002 8.605000e+001 -7.629395e-007
    endloop
  endfacet
  facet normal 0.000000e+000 0.000000e+000 1.000000e+000
    outer loop
      vertex   1.157500e+002 8.610000e+001 -7.629395e-007
      vertex   1.122000e+002 8.615000e+001 -7.629395e-007
      vertex   1.122000e+002 8.605000e+001 -7.629395e-007
    endloop
  endfacet
  facet normal 0.000000e+000 0.000000e+000 1.000000e+000
    outer loop
      vertex   1.157500e+002 8.610000e+001 -7.629395e-007
      vertex   1.193000e+002 8.615000e+001 -7.629395e-007
      vertex   1.122000e+002 8.615000e+001 -7.629395e-007
    endloop
  endfacet
  facet normal -0.000000e+000 1.000000e+000 -0.000000e+000
    outer loop
      vertex   1.193000e+002 1.885000e+001 -7.629395e-007
      vertex   1.122000e+002 1.885000e+001 6.900000e+000
      vertex   1.118000e+002 1.885000e+001 7.300000e+000
    endloop
  endfacet
  facet normal 0.000000e+000 -1.000000e+000 0.000000e+000
    outer loop
      vertex   1.193000e+002 8.615000e+001 6.900000e+000
      vertex   1.118000e+002 8.615000e+001 7.300000e+000
      vertex   1.193000e+002 8.615000e+001 -7.629395e-007
    endloop
  endfacet
  facet normal 0.000000e+000 0.000000e+000 1.000000e+000
    outer loop
      vertex   1.157500e+002 1.965000e+001 -7.629395e-007
      vertex   1.122000e+002 2.045000e+001 -7.629395e-007
      vertex   1.122000e+002 1.885000e+001 -7.629395e-007
    endloop
  endfacet
  facet normal 0.000000e+000 1.000000e+000 0.000000e+000
    outer loop
      vertex   1.193000e+002 1.885000e+001 -7.629395e-007
      vertex   1.122000e+002 1.885000e+001 -7.629395e-007
      vertex   1.122000e+002 1.885000e+001 6.900000e+000
    endloop
  endfacet
  facet normal 1.000000e+000 -0.000000e+000 0.000000e+000
    outer loop
      vertex   1.193000e+002 1.885000e+001 6.800000e+000
      vertex   1.193000e+002 1.585000e+001 6.800000e+000
      vertex   1.193000e+002 1.885000e+001 -7.629395e-007
    endloop
  endfacet
  facet normal 0.000000e+000 0.000000e+000 1.000000e+000
    outer loop
      vertex   1.157500e+002 1.965000e+001 -7.629395e-007
      vertex   1.122000e+002 1.885000e+001 -7.629395e-007
      vertex   1.193000e+002 1.885000e+001 -7.629395e-007
    endloop
  endfacet
  facet normal 0.000000e+000 -0.000000e+000 1.000000e+000
    outer loop
      vertex   1.157500e+002 1.965000e+001 -7.629395e-007
      vertex   1.193000e+002 1.885000e+001 -7.629395e-007
      vertex   1.193000e+002 2.045000e+001 -7.629395e-007
    endloop
  endfacet
  facet normal 0.000000e+000 -1.000000e+000 0.000000e+000
    outer loop
      vertex   1.122000e+002 8.615000e+001 6.900000e+000
      vertex   1.122000e+002 8.615000e+001 -7.629395e-007
      vertex   1.193000e+002 8.615000e+001 -7.629395e-007
    endloop
  endfacet
  facet normal 0.000000e+000 0.000000e+000 1.000000e+000
    outer loop
      vertex   1.157500e+002 1.965000e+001 -7.629395e-007
      vertex   1.193000e+002 2.045000e+001 -7.629395e-007
      vertex   1.122000e+002 2.045000e+001 -7.629395e-007
    endloop
  endfacet
  facet normal 0.000000e+000 1.000000e+000 -0.000000e+000
    outer loop
      vertex   1.193000e+002 1.885000e+001 6.800000e+000
      vertex   1.193000e+002 1.885000e+001 -7.629395e-007
      vertex   1.118000e+002 1.885000e+001 7.300000e+000
    endloop
  endfacet
  facet normal 0.000000e+000 -1.000000e+000 0.000000e+000
    outer loop
      vertex   1.118000e+002 8.615000e+001 7.300000e+000
      vertex   1.122000e+002 8.615000e+001 6.900000e+000
      vertex   1.193000e+002 8.615000e+001 -7.629395e-007
    endloop
  endfacet
  facet normal -1.000000e+000 0.000000e+000 0.000000e+000
    outer loop
      vertex   1.122000e+002 1.885000e+001 6.900000e+000
      vertex   1.122000e+002 1.885000e+001 -7.629395e-007
      vertex   1.122000e+002 1.585000e+001 6.900000e+000
    endloop
  endfacet
  facet normal 0.000000e+000 -1.000000e+000 0.000000e+000
    outer loop
      vertex   1.261000e+002 1.895000e+001 4.499999e+000
      vertex   1.272000e+002 1.895000e+001 1.700000e+000
      vertex   1.272000e+002 1.895000e+001 7.300000e+000
    endloop
  endfacet
  facet normal 0.000000e+000 1.000000e+000 0.000000e+000
    outer loop
      vertex   1.261000e+002 8.605000e+001 4.499999e+000
      vertex   1.272000e+002 8.605000e+001 7.300000e+000
      vertex   1.272000e+002 8.605000e+001 1.700000e+000
    endloop
  endfacet
  facet normal 0.000000e+000 -0.000000e+000 -1.000000e+000
    outer loop
      vertex   1.082000e+002 5.410000e+001 1.700000e+000
      vertex   1.088000e+002 8.605000e+001 1.700000e+000
      vertex   1.088000e+002 2.215000e+001 1.700000e+000
    endloop
  endfacet
  facet normal 0.000000e+000 0.000000e+000 -1.000000e+000
    outer loop
      vertex   1.082000e+002 5.410000e+001 1.700000e+000
      vertex   1.076000e+002 8.605000e+001 1.700000e+000
      vertex   1.088000e+002 8.605000e+001 1.700000e+000
    endloop
  endfacet
  facet normal 0.000000e+000 0.000000e+000 -1.000000e+000
    outer loop
      vertex   1.082000e+002 5.410000e+001 1.700000e+000
      vertex   1.076000e+002 2.215000e+001 1.700000e+000
      vertex   1.076000e+002 8.605000e+001 1.700000e+000
    endloop
  endfacet
  facet normal 0.000000e+000 0.000000e+000 -1.000000e+000
    outer loop
      vertex   1.082000e+002 5.410000e+001 1.700000e+000
      vertex   1.088000e+002 2.215000e+001 1.700000e+000
      vertex   1.076000e+002 2.215000e+001 1.700000e+000
    endloop
  endfacet
  facet normal 0.000000e+000 1.000000e+000 0.000000e+000
    outer loop
      vertex   1.261000e+002 8.605000e+001 4.499999e+000
      vertex   1.272000e+002 8.605000e+001 1.700000e+000
      vertex   1.250000e+002 8.605000e+001 1.700000e+000
    endloop
  endfacet
  facet normal 0.000000e+000 -1.000000e+000 0.000000e+000
    outer loop
      vertex   1.261000e+002 1.895000e+001 4.499999e+000
      vertex   1.250000e+002 1.895000e+001 7.300000e+000
      vertex   1.250000e+002 1.895000e+001 1.700000e+000
    endloop
  endfacet
  facet normal 0.000000e+000 -1.000000e+000 0.000000e+000
    outer loop
      vertex   1.261000e+002 1.895000e+001 4.499999e+000
      vertex   1.250000e+002 1.895000e+001 1.700000e+000
      vertex   1.272000e+002 1.895000e+001 1.700000e+000
    endloop
  endfacet
  facet normal -1.000000e+000 0.000000e+000 0.000000e+000
    outer loop
      vertex   1.250000e+002 8.605000e+001 7.300000e+000
      vertex   1.250000e+002 8.605000e+001 1.700000e+000
      vertex   1.250000e+002 1.885000e+001 2.020000e+001
    endloop
  endfacet
  facet normal 0.000000e+000 1.000000e+000 0.000000e+000
    outer loop
      vertex   1.261000e+002 8.605000e+001 4.499999e+000
      vertex   1.250000e+002 8.605000e+001 1.700000e+000
      vertex   1.250000e+002 8.605000e+001 7.300000e+000
    endloop
  endfacet
  facet normal -1.000000e+000 0.000000e+000 0.000000e+000
    outer loop
      vertex   1.250000e+002 8.605000e+001 1.700000e+000
      vertex   1.250000e+002 1.895000e+001 1.700000e+000
      vertex   1.250000e+002 1.895000e+001 7.300000e+000
    endloop
  endfacet
  facet normal 0.000000e+000 0.000000e+000 -1.000000e+000
    outer loop
      vertex   1.261000e+002 5.250000e+001 1.700000e+000
      vertex   1.272000e+002 1.895000e+001 1.700000e+000
      vertex   1.250000e+002 1.895000e+001 1.700000e+000
    endloop
  endfacet
  facet normal 0.000000e+000 0.000000e+000 -1.000000e+000
    outer loop
      vertex   1.261000e+002 5.250000e+001 1.700000e+000
      vertex   1.250000e+002 1.895000e+001 1.700000e+000
      vertex   1.250000e+002 8.605000e+001 1.700000e+000
    endloop
  endfacet
  facet normal 0.000000e+000 1.000000e+000 0.000000e+000
    outer loop
      vertex   1.082000e+002 8.605000e+001 4.499999e+000
      vertex   1.088000e+002 8.605000e+001 1.700000e+000
      vertex   1.076000e+002 8.605000e+001 1.700000e+000
    endloop
  endfacet
  facet normal 0.000000e+000 1.000000e+000 0.000000e+000
    outer loop
      vertex   1.082000e+002 8.605000e+001 4.499999e+000
      vertex   1.076000e+002 8.605000e+001 1.700000e+000
      vertex   1.076000e+002 8.605000e+001 7.300000e+000
    endloop
  endfacet
  facet normal 0.000000e+000 0.000000e+000 -1.000000e+000
    outer loop
      vertex   1.261000e+002 5.250000e+001 1.700000e+000
      vertex   1.250000e+002 8.605000e+001 1.700000e+000
      vertex   1.272000e+002 8.605000e+001 1.700000e+000
    endloop
  endfacet
  facet normal 0.000000e+000 1.000000e+000 0.000000e+000
    outer loop
      vertex   1.082000e+002 8.605000e+001 4.499999e+000
      vertex   1.088000e+002 8.605000e+001 7.300000e+000
      vertex   1.088000e+002 8.605000e+001 1.700000e+000
    endloop
  endfacet
  facet normal 0.000000e+000 -1.000000e+000 0.000000e+000
    outer loop
      vertex   1.082000e+002 2.215000e+001 2.712133e+000
      vertex   1.088000e+002 2.215000e+001 1.700000e+000
      vertex   1.088000e+002 2.215000e+001 3.724263e+000
    endloop
  endfacet
  facet normal -1.000000e+000 0.000000e+000 0.000000e+000
    outer loop
      vertex   1.076000e+002 8.605000e+001 1.700000e+000
      vertex   1.076000e+002 2.215000e+001 1.700000e+000
      vertex   1.076000e+002 2.215000e+001 3.724263e+000
    endloop
  endfacet
  facet normal 0.000000e+000 -1.000000e+000 0.000000e+000
    outer loop
      vertex   1.082000e+002 2.215000e+001 2.712133e+000
      vertex   1.076000e+002 2.215000e+001 3.724263e+000
      vertex   1.076000e+002 2.215000e+001 1.700000e+000
    endloop
  endfacet
  facet normal 0.000000e+000 -1.000000e+000 0.000000e+000
    outer loop
      vertex   1.082000e+002 2.215000e+001 2.712133e+000
      vertex   1.076000e+002 2.215000e+001 1.700000e+000
      vertex   1.088000e+002 2.215000e+001 1.700000e+000
    endloop
  endfacet
  facet normal 1.000000e+000 0.000000e+000 0.000000e+000
    outer loop
      vertex   1.272000e+002 8.605000e+001 1.700000e+000
      vertex   1.272000e+002 1.585000e+001 2.220000e+001
      vertex   1.272000e+002 1.895000e+001 7.300000e+000
    endloop
  endfacet
  facet normal -1.000000e+000 0.000000e+000 0.000000e+000
    outer loop
      vertex   1.250000e+002 8.605000e+001 1.700000e+000
      vertex   1.250000e+002 1.895000e+001 7.300000e+000
      vertex   1.250000e+002 1.885000e+001 2.020000e+001
    endloop
  endfacet
  facet normal 1.000000e+000 0.000000e+000 0.000000e+000
    outer loop
      vertex   1.088000e+002 8.605000e+001 7.300000e+000
      vertex   1.088000e+002 1.885000e+001 2.020000e+001
      vertex   1.088000e+002 8.605000e+001 1.700000e+000
    endloop
  endfacet
  facet normal -1.000000e+000 0.000000e+000 0.000000e+000
    outer loop
      vertex   1.076000e+002 8.605000e+001 1.700000e+000
      vertex   1.076000e+002 2.215000e+001 3.724263e+000
      vertex   1.076000e+002 1.585000e+001 2.220000e+001
    endloop
  endfacet
  facet normal -1.000000e+000 0.000000e+000 0.000000e+000
    outer loop
      vertex   1.076000e+002 8.605000e+001 7.300000e+000
      vertex   1.076000e+002 8.605000e+001 1.700000e+000
      vertex   1.076000e+002 1.585000e+001 2.220000e+001
    endloop
  endfacet
  facet normal 1.000000e+000 0.000000e+000 0.000000e+000
    outer loop
      vertex   1.088000e+002 8.605000e+001 1.700000e+000
      vertex   1.088000e+002 2.215000e+001 3.724263e+000
      vertex   1.088000e+002 2.215000e+001 1.700000e+000
    endloop
  endfacet
  facet normal 1.000000e+000 0.000000e+000 0.000000e+000
    outer loop
      vertex   1.088000e+002 8.605000e+001 1.700000e+000
      vertex   1.088000e+002 1.885000e+001 2.020000e+001
      vertex   1.088000e+002 2.215000e+001 3.724263e+000
    endloop
  endfacet
  facet normal 0.000000e+000 -0.000000e+000 -1.000000e+000
    outer loop
      vertex   1.261000e+002 5.250000e+001 1.700000e+000
      vertex   1.272000e+002 8.605000e+001 1.700000e+000
      vertex   1.272000e+002 1.895000e+001 1.700000e+000
    endloop
  endfacet
  facet normal 1.000000e+000 0.000000e+000 0.000000e+000
    outer loop
      vertex   1.272000e+002 8.605000e+001 7.300000e+000
      vertex   1.272000e+002 1.585000e+001 2.220000e+001
      vertex   1.272000e+002 8.605000e+001 1.700000e+000
    endloop
  endfacet
  facet normal 1.000000e+000 0.000000e+000 0.000000e+000
    outer loop
      vertex   1.272000e+002 8.605000e+001 1.700000e+000
      vertex   1.272000e+002 1.895000e+001 7.300000e+000
      vertex   1.272000e+002 1.895000e+001 1.700000e+000
    endloop
  endfacet
  facet normal -0.000000e+000 -1.000000e+000 0.000000e+000
    outer loop
      vertex   1.082000e+002 2.215000e+001 2.712133e+000
      vertex   1.088000e+002 2.215000e+001 3.724263e+000
      vertex   1.076000e+002 2.215000e+001 3.724263e+000
    endloop
  endfacet
  facet normal -1.000000e+000 0.000000e+000 0.000000e+000
    outer loop
      vertex   1.076000e+002 1.915000e+001 7.300000e+000
      vertex   1.076000e+002 2.215000e+001 3.724263e+000
      vertex   1.076000e+002 1.915000e+001 6.724264e+000
    endloop
  endfacet
  facet normal -1.000000e+000 0.000000e+000 0.000000e+000
    outer loop
      vertex   1.076000e+002 1.585000e+001 2.220000e+001
      vertex   1.076000e+002 2.215000e+001 3.724263e+000
      vertex   1.076000e+002 1.915000e+001 7.300000e+000
    endloop
  endfacet
  facet normal 1.000000e+000 -0.000000e+000 0.000000e+000
    outer loop
      vertex   1.088000e+002 1.915000e+001 7.300000e+000
      vertex   1.088000e+002 1.915000e+001 6.724264e+000
      vertex   1.088000e+002 2.215000e+001 3.724263e+000
    endloop
  endfacet
  facet normal 0.000000e+000 -7.071067e-001 -7.071068e-001
    outer loop
      vertex   1.082000e+002 2.065000e+001 5.224263e+000
      vertex   1.076000e+002 2.215000e+001 3.724263e+000
      vertex   1.088000e+002 2.215000e+001 3.724263e+000
    endloop
  endfacet
  facet normal -7.492791e-007 -7.071069e-001 -7.071067e-001
    outer loop
      vertex   1.082000e+002 2.065000e+001 5.224263e+000
      vertex   1.076000e+002 1.915000e+001 6.724264e+000
      vertex   1.076000e+002 2.215000e+001 3.724263e+000
    endloop
  endfacet
  facet normal 1.000000e+000 -0.000000e+000 -0.000000e+000
    outer loop
      vertex   1.088000e+002 1.885000e+001 2.020000e+001
      vertex   1.088000e+002 1.915000e+001 7.300000e+000
      vertex   1.088000e+002 2.215000e+001 3.724263e+000
    endloop
  endfacet
  facet normal 7.492696e-007 -7.071069e-001 -7.071067e-001
    outer loop
      vertex   1.082000e+002 2.065000e+001 5.224263e+000
      vertex   1.088000e+002 2.215000e+001 3.724263e+000
      vertex   1.088000e+002 1.915000e+001 6.724264e+000
    endloop
  endfacet
  facet normal -0.000000e+000 1.000000e+000 0.000000e+000
    outer loop
      vertex   1.261000e+002 8.605000e+001 4.499999e+000
      vertex   1.250000e+002 8.605000e+001 7.300000e+000
      vertex   1.272000e+002 8.605000e+001 7.300000e+000
    endloop
  endfacet
  facet normal -0.000000e+000 -1.000000e+000 0.000000e+000
    outer loop
      vertex   1.261000e+002 1.895000e+001 4.499999e+000
      vertex   1.272000e+002 1.895000e+001 7.300000e+000
      vertex   1.250000e+002 1.895000e+001 7.300000e+000
    endloop
  endfacet
  facet normal -0.000000e+000 1.000000e+000 0.000000e+000
    outer loop
      vertex   1.082000e+002 8.605000e+001 4.499999e+000
      vertex   1.076000e+002 8.605000e+001 7.300000e+000
      vertex   1.088000e+002 8.605000e+001 7.300000e+000
    endloop
  endfacet
  facet normal -0.000000e+000 -7.071070e-001 -7.071065e-001
    outer loop
      vertex   1.082000e+002 2.065000e+001 5.224263e+000
      vertex   1.088000e+002 1.915000e+001 6.724264e+000
      vertex   1.076000e+002 1.915000e+001 6.724264e+000
    endloop
  endfacet
  facet normal 0.000000e+000 -1.000000e+000 0.000000e+000
    outer loop
      vertex   1.082000e+002 1.915000e+001 7.012132e+000
      vertex   1.076000e+002 1.915000e+001 7.300000e+000
      vertex   1.076000e+002 1.915000e+001 6.724264e+000
    endloop
  endfacet
  facet normal 0.000000e+000 -1.000000e+000 0.000000e+000
    outer loop
      vertex   1.082000e+002 1.915000e+001 7.012132e+000
      vertex   1.088000e+002 1.915000e+001 6.724264e+000
      vertex   1.088000e+002 1.915000e+001 7.300000e+000
    endloop
  endfacet
  facet normal 0.000000e+000 -1.000000e+000 0.000000e+000
    outer loop
      vertex   1.082000e+002 1.915000e+001 7.012132e+000
      vertex   1.076000e+002 1.915000e+001 6.724264e+000
      vertex   1.088000e+002 1.915000e+001 6.724264e+000
    endloop
  endfacet
  facet normal 0.000000e+000 1.000000e+000 0.000000e+000
    outer loop
      vertex   1.088000e+002 1.885000e+001 2.020000e+001
      vertex   1.193000e+002 1.885000e+001 6.800000e+000
      vertex   1.118000e+002 1.885000e+001 7.300000e+000
    endloop
  endfacet
  facet normal 7.071068e-001 0.000000e+000 -7.071068e-001
    outer loop
      vertex   1.195500e+002 1.735000e+001 7.050000e+000
      vertex   1.193000e+002 1.885000e+001 6.800000e+000
      vertex   1.198000e+002 1.885000e+001 7.300000e+000
    endloop
  endfacet
  facet normal 7.071068e-001 0.000000e+000 -7.071068e-001
    outer loop
      vertex   1.195500e+002 1.735000e+001 7.050000e+000
      vertex   1.193000e+002 1.585000e+001 6.800000e+000
      vertex   1.193000e+002 1.885000e+001 6.800000e+000
    endloop
  endfacet
  facet normal 0.000000e+000 1.000000e+000 -0.000000e+000
    outer loop
      vertex   1.198000e+002 1.885000e+001 7.300000e+000
      vertex   1.193000e+002 1.885000e+001 6.800000e+000
      vertex   1.088000e+002 1.885000e+001 2.020000e+001
    endloop
  endfacet
  facet normal 0.000000e+000 -1.000000e+000 0.000000e+000
    outer loop
      vertex   1.198000e+002 1.585000e+001 7.300000e+000
      vertex   1.118000e+002 1.585000e+001 7.300000e+000
      vertex   1.193000e+002 1.585000e+001 6.800000e+000
    endloop
  endfacet
  facet normal 0.000000e+000 -1.000000e+000 0.000000e+000
    outer loop
      vertex   1.193000e+002 1.585000e+001 6.800000e+000
      vertex   1.118000e+002 1.585000e+001 7.300000e+000
      vertex   1.122000e+002 1.585000e+001 6.900000e+000
    endloop
  endfacet
  facet normal 7.071068e-001 0.000000e+000 -7.071068e-001
    outer loop
      vertex   1.195500e+002 1.735000e+001 7.050000e+000
      vertex   1.198000e+002 1.585000e+001 7.300000e+000
      vertex   1.193000e+002 1.585000e+001 6.800000e+000
    endloop
  endfacet
  facet normal 7.071127e-001 -3.292745e-007 -7.071009e-001
    outer loop
      vertex   1.195000e+002 8.715000e+001 7.099999e+000
      vertex   1.197000e+002 8.615000e+001 7.300000e+000
      vertex   1.193000e+002 8.615000e+001 6.900000e+000
    endloop
  endfacet
  facet normal -7.071127e-001 3.292745e-007 -7.071009e-001
    outer loop
      vertex   1.120000e+002 8.715000e+001 7.099999e+000
      vertex   1.118000e+002 8.815000e+001 7.300000e+000
      vertex   1.122000e+002 8.815000e+001 6.900000e+000
    endloop
  endfacet
  facet normal 7.071118e-001 0.000000e+000 -7.071017e-001
    outer loop
      vertex   1.195000e+002 8.715000e+001 7.099999e+000
      vertex   1.193000e+002 8.615000e+001 6.900000e+000
      vertex   1.193000e+002 8.815000e+001 6.900000e+000
    endloop
  endfacet
  facet normal -7.071118e-001 -0.000000e+000 -7.071017e-001
    outer loop
      vertex   1.120000e+002 8.715000e+001 7.099999e+000
      vertex   1.122000e+002 8.815000e+001 6.900000e+000
      vertex   1.122000e+002 8.615000e+001 6.900000e+000
    endloop
  endfacet
  facet normal 7.071127e-001 3.424455e-007 -7.071009e-001
    outer loop
      vertex   1.195000e+002 8.715000e+001 7.099999e+000
      vertex   1.193000e+002 8.815000e+001 6.900000e+000
      vertex   1.197000e+002 8.815000e+001 7.300000e+000
    endloop
  endfacet
  facet normal -7.071127e-001 -3.424455e-007 -7.071009e-001
    outer loop
      vertex   1.120000e+002 8.715000e+001 7.099999e+000
      vertex   1.122000e+002 8.615000e+001 6.900000e+000
      vertex   1.118000e+002 8.615000e+001 7.300000e+000
    endloop
  endfacet
  facet normal -7.071127e-001 2.195164e-007 -7.071009e-001
    outer loop
      vertex   1.120000e+002 1.735000e+001 7.099999e+000
      vertex   1.118000e+002 1.885000e+001 7.300000e+000
      vertex   1.122000e+002 1.885000e+001 6.900000e+000
    endloop
  endfacet
  facet normal -7.071118e-001 -0.000000e+000 -7.071017e-001
    outer loop
      vertex   1.120000e+002 1.735000e+001 7.099999e+000
      vertex   1.122000e+002 1.885000e+001 6.900000e+000
      vertex   1.122000e+002 1.585000e+001 6.900000e+000
    endloop
  endfacet
  facet normal 0.000000e+000 1.000000e+000 -0.000000e+000
    outer loop
      vertex   1.193000e+002 8.815000e+001 6.900000e+000
      vertex   1.122000e+002 8.815000e+001 6.900000e+000
      vertex   1.118000e+002 8.815000e+001 7.300000e+000
    endloop
  endfacet
  facet normal 0.000000e+000 -1.000000e+000 0.000000e+000
    outer loop
      vertex   1.197000e+002 8.615000e+001 7.300000e+000
      vertex   1.118000e+002 8.615000e+001 7.300000e+000
      vertex   1.193000e+002 8.615000e+001 6.900000e+000
    endloop
  endfacet
  facet normal -7.071127e-001 -2.282970e-007 -7.071009e-001
    outer loop
      vertex   1.120000e+002 1.735000e+001 7.099999e+000
      vertex   1.122000e+002 1.585000e+001 6.900000e+000
      vertex   1.118000e+002 1.585000e+001 7.300000e+000
    endloop
  endfacet
  facet normal 0.000000e+000 1.000000e+000 -0.000000e+000
    outer loop
      vertex   1.197000e+002 8.815000e+001 7.300000e+000
      vertex   1.193000e+002 8.815000e+001 6.900000e+000
      vertex   1.118000e+002 8.815000e+001 7.300000e+000
    endloop
  endfacet
  facet normal -0.000000e+000 -1.000000e+000 0.000000e+000
    outer loop
      vertex   1.082000e+002 1.915000e+001 7.012132e+000
      vertex   1.088000e+002 1.915000e+001 7.300000e+000
      vertex   1.076000e+002 1.915000e+001 7.300000e+000
    endloop
  endfacet
  facet normal 7.071068e-001 0.000000e+000 -7.071068e-001
    outer loop
      vertex   1.195500e+002 1.735000e+001 7.050000e+000
      vertex   1.198000e+002 1.885000e+001 7.300000e+000
      vertex   1.198000e+002 1.585000e+001 7.300000e+000
    endloop
  endfacet
  facet normal 7.071134e-001 0.000000e+000 -7.071000e-001
    outer loop
      vertex   1.195000e+002 8.715000e+001 7.099999e+000
      vertex   1.197000e+002 8.815000e+001 7.300000e+000
      vertex   1.197000e+002 8.615000e+001 7.300000e+000
    endloop
  endfacet
  facet normal -7.071135e-001 0.000000e+000 -7.071000e-001
    outer loop
      vertex   1.120000e+002 1.735000e+001 7.099999e+000
      vertex   1.118000e+002 1.585000e+001 7.300000e+000
      vertex   1.118000e+002 1.885000e+001 7.300000e+000
    endloop
  endfacet
  facet normal -7.071134e-001 0.000000e+000 -7.071000e-001
    outer loop
      vertex   1.120000e+002 8.715000e+001 7.099999e+000
      vertex   1.118000e+002 8.615000e+001 7.300000e+000
      vertex   1.118000e+002 8.815000e+001 7.300000e+000
    endloop
  endfacet
  facet normal 0.000000e+000 0.000000e+000 1.000000e+000
    outer loop
      vertex   1.197000e+002 8.615000e+001 7.300000e+000
      vertex   1.088000e+002 8.615000e+001 7.300000e+000
      vertex   1.118000e+002 8.615000e+001 7.300000e+000
    endloop
  endfacet
  facet normal 0.000000e+000 -1.000000e+000 0.000000e+000
    outer loop
      vertex   1.088000e+002 8.615000e+001 2.020000e+001
      vertex   1.088000e+002 8.615000e+001 7.300000e+000
      vertex   1.197000e+002 8.615000e+001 7.300000e+000
    endloop
  endfacet
  facet normal 0.000000e+000 0.000000e+000 -1.000000e+000
    outer loop
      vertex   1.272000e+002 8.605000e+001 7.300000e+000
      vertex   1.250000e+002 8.605000e+001 7.300000e+000
      vertex   1.250000e+002 8.615000e+001 7.300000e+000
    endloop
  endfacet
  facet normal 1.000000e+000 -0.000000e+000 0.000000e+000
    outer loop
      vertex   1.088000e+002 8.615000e+001 2.020000e+001
      vertex   1.088000e+002 1.885000e+001 2.020000e+001
      vertex   1.088000e+002 8.615000e+001 7.300000e+000
    endloop
  endfacet
  facet normal 0.000000e+000 0.000000e+000 -1.000000e+000
    outer loop
      vertex   1.272000e+002 1.895000e+001 7.300000e+000
      vertex   1.272000e+002 1.585000e+001 7.300000e+000
      vertex   1.250000e+002 1.895000e+001 7.300000e+000
    endloop
  endfacet
  facet normal 0.000000e+000 0.000000e+000 -1.000000e+000
    outer loop
      vertex   1.272000e+002 1.585000e+001 7.300000e+000
      vertex   1.198000e+002 1.585000e+001 7.300000e+000
      vertex   1.198000e+002 1.885000e+001 7.300000e+000
    endloop
  endfacet
  facet normal 0.000000e+000 0.000000e+000 -1.000000e+000
    outer loop
      vertex   1.250000e+002 1.885000e+001 7.300000e+000
      vertex   1.272000e+002 1.585000e+001 7.300000e+000
      vertex   1.198000e+002 1.885000e+001 7.300000e+000
    endloop
  endfacet
  facet normal 0.000000e+000 0.000000e+000 -1.000000e+000
    outer loop
      vertex   1.250000e+002 8.615000e+001 7.300000e+000
      vertex   1.197000e+002 8.615000e+001 7.300000e+000
      vertex   1.197000e+002 8.815000e+001 7.300000e+000
    endloop
  endfacet
  facet normal 0.000000e+000 -1.000000e+000 0.000000e+000
    outer loop
      vertex   1.076000e+002 1.585000e+001 2.220000e+001
      vertex   1.118000e+002 1.585000e+001 7.300000e+000
      vertex   1.198000e+002 1.585000e+001 7.300000e+000
    endloop
  endfacet
  facet normal 0.000000e+000 0.000000e+000 -1.000000e+000
    outer loop
      vertex   1.272000e+002 8.605000e+001 7.300000e+000
      vertex   1.250000e+002 8.615000e+001 7.300000e+000
      vertex   1.197000e+002 8.815000e+001 7.300000e+000
    endloop
  endfacet
  facet normal 0.000000e+000 -1.000000e+000 0.000000e+000
    outer loop
      vertex   1.076000e+002 1.585000e+001 2.220000e+001
      vertex   1.076000e+002 1.585000e+001 7.300000e+000
      vertex   1.118000e+002 1.585000e+001 7.300000e+000
    endloop
  endfacet
  facet normal -1.000000e+000 0.000000e+000 0.000000e+000
    outer loop
      vertex   1.250000e+002 1.885000e+001 2.020000e+001
      vertex   1.250000e+002 1.895000e+001 7.300000e+000
      vertex   1.250000e+002 1.885000e+001 7.300000e+000
    endloop
  endfacet
  facet normal 0.000000e+000 -1.000000e+000 0.000000e+000
    outer loop
      vertex   1.272000e+002 1.585000e+001 2.220000e+001
      vertex   1.076000e+002 1.585000e+001 2.220000e+001
      vertex   1.272000e+002 1.585000e+001 7.300000e+000
    endloop
  endfacet
  facet normal 0.000000e+000 0.000000e+000 -1.000000e+000
    outer loop
      vertex   1.118000e+002 8.815000e+001 7.300000e+000
      vertex   1.118000e+002 8.615000e+001 7.300000e+000
      vertex   1.076000e+002 8.815000e+001 7.300000e+000
    endloop
  endfacet
  facet normal 1.000000e+000 0.000000e+000 0.000000e+000
    outer loop
      vertex   1.088000e+002 8.615000e+001 7.300000e+000
      vertex   1.088000e+002 1.885000e+001 2.020000e+001
      vertex   1.088000e+002 8.605000e+001 7.300000e+000
    endloop
  endfacet
  facet normal 0.000000e+000 0.000000e+000 -1.000000e+000
    outer loop
      vertex   1.118000e+002 8.615000e+001 7.300000e+000
      vertex   1.088000e+002 8.615000e+001 7.300000e+000
      vertex   1.076000e+002 8.815000e+001 7.300000e+000
    endloop
  endfacet
  facet normal -0.000000e+000 0.000000e+000 -1.000000e+000
    outer loop
      vertex   1.076000e+002 8.815000e+001 7.300000e+000
      vertex   1.088000e+002 8.615000e+001 7.300000e+000
      vertex   1.076000e+002 8.605000e+001 7.300000e+000
    endloop
  endfacet
  facet normal 0.000000e+000 0.000000e+000 -1.000000e+000
    outer loop
      vertex   1.088000e+002 8.615000e+001 7.300000e+000
      vertex   1.088000e+002 8.605000e+001 7.300000e+000
      vertex   1.076000e+002 8.605000e+001 7.300000e+000
    endloop
  endfacet
  facet normal -1.000000e+000 0.000000e+000 0.000000e+000
    outer loop
      vertex   1.250000e+002 8.615000e+001 2.020000e+001
      vertex   1.250000e+002 8.615000e+001 7.300000e+000
      vertex   1.250000e+002 1.885000e+001 2.020000e+001
    endloop
  endfacet
  facet normal -1.000000e+000 0.000000e+000 0.000000e+000
    outer loop
      vertex   1.250000e+002 8.615000e+001 7.300000e+000
      vertex   1.250000e+002 8.605000e+001 7.300000e+000
      vertex   1.250000e+002 1.885000e+001 2.020000e+001
    endloop
  endfacet
  facet normal 0.000000e+000 0.000000e+000 -1.000000e+000
    outer loop
      vertex   1.250000e+002 1.895000e+001 7.300000e+000
      vertex   1.272000e+002 1.585000e+001 7.300000e+000
      vertex   1.250000e+002 1.885000e+001 7.300000e+000
    endloop
  endfacet
  facet normal 0.000000e+000 -1.000000e+000 0.000000e+000
    outer loop
      vertex   1.272000e+002 1.585000e+001 7.300000e+000
      vertex   1.076000e+002 1.585000e+001 2.220000e+001
      vertex   1.198000e+002 1.585000e+001 7.300000e+000
    endloop
  endfacet
  facet normal -1.000000e+000 0.000000e+000 0.000000e+000
    outer loop
      vertex   1.076000e+002 8.815000e+001 7.300000e+000
      vertex   1.076000e+002 8.605000e+001 7.300000e+000
      vertex   1.076000e+002 1.585000e+001 2.220000e+001
    endloop
  endfacet
  facet normal -1.000000e+000 0.000000e+000 0.000000e+000
    outer loop
      vertex   1.076000e+002 8.815000e+001 2.220000e+001
      vertex   1.076000e+002 8.815000e+001 7.300000e+000
      vertex   1.076000e+002 1.585000e+001 2.220000e+001
    endloop
  endfacet
  facet normal 1.000000e+000 0.000000e+000 0.000000e+000
    outer loop
      vertex   1.088000e+002 1.885000e+001 2.020000e+001
      vertex   1.088000e+002 1.885000e+001 7.300000e+000
      vertex   1.088000e+002 1.915000e+001 7.300000e+000
    endloop
  endfacet
  facet normal 0.000000e+000 0.000000e+000 -1.000000e+000
    outer loop
      vertex   1.272000e+002 8.815000e+001 7.300000e+000
      vertex   1.272000e+002 8.605000e+001 7.300000e+000
      vertex   1.197000e+002 8.815000e+001 7.300000e+000
    endloop
  endfacet
  facet normal 0.000000e+000 -1.000000e+000 0.000000e+000
    outer loop
      vertex   1.250000e+002 8.615000e+001 7.300000e+000
      vertex   1.088000e+002 8.615000e+001 2.020000e+001
      vertex   1.197000e+002 8.615000e+001 7.300000e+000
    endloop
  endfacet
  facet normal 0.000000e+000 -1.000000e+000 0.000000e+000
    outer loop
      vertex   1.250000e+002 8.615000e+001 2.020000e+001
      vertex   1.088000e+002 8.615000e+001 2.020000e+001
      vertex   1.250000e+002 8.615000e+001 7.300000e+000
    endloop
  endfacet
  facet normal -1.000000e+000 0.000000e+000 0.000000e+000
    outer loop
      vertex   1.076000e+002 1.585000e+001 2.220000e+001
      vertex   1.076000e+002 1.915000e+001 7.300000e+000
      vertex   1.076000e+002 1.585000e+001 7.300000e+000
    endloop
  endfacet
  facet normal 0.000000e+000 1.000000e+000 0.000000e+000
    outer loop
      vertex   1.076000e+002 8.815000e+001 2.220000e+001
      vertex   1.197000e+002 8.815000e+001 7.300000e+000
      vertex   1.118000e+002 8.815000e+001 7.300000e+000
    endloop
  endfacet
  facet normal 0.000000e+000 1.000000e+000 0.000000e+000
    outer loop
      vertex   1.076000e+002 8.815000e+001 2.220000e+001
      vertex   1.118000e+002 8.815000e+001 7.300000e+000
      vertex   1.076000e+002 8.815000e+001 7.300000e+000
    endloop
  endfacet
  facet normal 0.000000e+000 1.000000e+000 -0.000000e+000
    outer loop
      vertex   1.272000e+002 8.815000e+001 7.300000e+000
      vertex   1.197000e+002 8.815000e+001 7.300000e+000
      vertex   1.076000e+002 8.815000e+001 2.220000e+001
    endloop
  endfacet
  facet normal 0.000000e+000 1.000000e+000 -0.000000e+000
    outer loop
      vertex   1.272000e+002 8.815000e+001 2.220000e+001
      vertex   1.272000e+002 8.815000e+001 7.300000e+000
      vertex   1.076000e+002 8.815000e+001 2.220000e+001
    endloop
  endfacet
  facet normal 1.000000e+000 0.000000e+000 0.000000e+000
    outer loop
      vertex   1.272000e+002 1.585000e+001 2.220000e+001
      vertex   1.272000e+002 1.585000e+001 7.300000e+000
      vertex   1.272000e+002 1.895000e+001 7.300000e+000
    endloop
  endfacet
  facet normal 0.000000e+000 1.000000e+000 -0.000000e+000
    outer loop
      vertex   1.250000e+002 1.885000e+001 2.020000e+001
      vertex   1.250000e+002 1.885000e+001 7.300000e+000
      vertex   1.088000e+002 1.885000e+001 2.020000e+001
    endloop
  endfacet
  facet normal 1.000000e+000 -0.000000e+000 0.000000e+000
    outer loop
      vertex   1.272000e+002 8.815000e+001 2.220000e+001
      vertex   1.272000e+002 1.585000e+001 2.220000e+001
      vertex   1.272000e+002 8.815000e+001 7.300000e+000
    endloop
  endfacet
  facet normal 0.000000e+000 0.000000e+000 -1.000000e+000
    outer loop
      vertex   1.118000e+002 1.885000e+001 7.300000e+000
      vertex   1.118000e+002 1.585000e+001 7.300000e+000
      vertex   1.088000e+002 1.885000e+001 7.300000e+000
    endloop
  endfacet
  facet normal 0.000000e+000 1.000000e+000 0.000000e+000
    outer loop
      vertex   1.088000e+002 1.885000e+001 2.020000e+001
      vertex   1.118000e+002 1.885000e+001 7.300000e+000
      vertex   1.088000e+002 1.885000e+001 7.300000e+000
    endloop
  endfacet
  facet normal 0.000000e+000 0.000000e+000 -1.000000e+000
    outer loop
      vertex   1.088000e+002 1.915000e+001 7.300000e+000
      vertex   1.088000e+002 1.885000e+001 7.300000e+000
      vertex   1.076000e+002 1.915000e+001 7.300000e+000
    endloop
  endfacet
  facet normal 0.000000e+000 1.000000e+000 -0.000000e+000
    outer loop
      vertex   1.250000e+002 1.885000e+001 7.300000e+000
      vertex   1.198000e+002 1.885000e+001 7.300000e+000
      vertex   1.088000e+002 1.885000e+001 2.020000e+001
    endloop
  endfacet
  facet normal 0.000000e+000 0.000000e+000 -1.000000e+000
    outer loop
      vertex   1.076000e+002 1.915000e+001 7.300000e+000
      vertex   1.118000e+002 1.585000e+001 7.300000e+000
      vertex   1.076000e+002 1.585000e+001 7.300000e+000
    endloop
  endfacet
  facet normal 0.000000e+000 0.000000e+000 -1.000000e+000
    outer loop
      vertex   1.088000e+002 1.885000e+001 7.300000e+000
      vertex   1.118000e+002 1.585000e+001 7.300000e+000
      vertex   1.076000e+002 1.915000e+001 7.300000e+000
    endloop
  endfacet
  facet normal 1.000000e+000 0.000000e+000 0.000000e+000
    outer loop
      vertex   1.272000e+002 8.815000e+001 7.300000e+000
      vertex   1.272000e+002 1.585000e+001 2.220000e+001
      vertex   1.272000e+002 8.605000e+001 7.300000e+000
    endloop
  endfacet
  facet normal 0.000000e+000 -0.000000e+000 -1.000000e+000
    outer loop
      vertex   1.169000e+002 5.250000e+001 2.020000e+001
      vertex   1.250000e+002 8.615000e+001 2.020000e+001
      vertex   1.250000e+002 1.885000e+001 2.020000e+001
    endloop
  endfacet
  facet normal 0.000000e+000 0.000000e+000 -1.000000e+000
    outer loop
      vertex   1.169000e+002 5.250000e+001 2.020000e+001
      vertex   1.088000e+002 1.885000e+001 2.020000e+001
      vertex   1.088000e+002 8.615000e+001 2.020000e+001
    endloop
  endfacet
  facet normal 0.000000e+000 0.000000e+000 -1.000000e+000
    outer loop
      vertex   1.169000e+002 5.250000e+001 2.020000e+001
      vertex   1.088000e+002 8.615000e+001 2.020000e+001
      vertex   1.250000e+002 8.615000e+001 2.020000e+001
    endloop
  endfacet
  facet normal 0.000000e+000 0.000000e+000 -1.000000e+000
    outer loop
      vertex   1.169000e+002 5.250000e+001 2.020000e+001
      vertex   1.250000e+002 1.885000e+001 2.020000e+001
      vertex   1.088000e+002 1.885000e+001 2.020000e+001
    endloop
  endfacet
  facet normal 0.000000e+000 -0.000000e+000 1.000000e+000
    outer loop
      vertex   1.174000e+002 5.200000e+001 2.220000e+001
      vertex   1.272000e+002 1.585000e+001 2.220000e+001
      vertex   1.272000e+002 8.815000e+001 2.220000e+001
    endloop
  endfacet
  facet normal 0.000000e+000 0.000000e+000 1.000000e+000
    outer loop
      vertex   1.174000e+002 5.200000e+001 2.220000e+001
      vertex   1.076000e+002 8.815000e+001 2.220000e+001
      vertex   1.076000e+002 1.585000e+001 2.220000e+001
    endloop
  endfacet
  facet normal 0.000000e+000 0.000000e+000 1.000000e+000
    outer loop
      vertex   1.174000e+002 5.200000e+001 2.220000e+001
      vertex   1.076000e+002 1.585000e+001 2.220000e+001
      vertex   1.272000e+002 1.585000e+001 2.220000e+001
    endloop
  endfacet
  facet normal 0.000000e+000 0.000000e+000 1.000000e+000
    outer loop
      vertex   1.174000e+002 5.200000e+001 2.220000e+001
      vertex   1.272000e+002 8.815000e+001 2.220000e+001
      vertex   1.076000e+002 8.815000e+001 2.220000e+001
    endloop
  endfacet
endsolid
