solid ascii
  facet normal 2.567886e-007 8.823529e-001 -4.705883e-001
    outer loop
      vertex   1.157500e+002 1.965000e+001 -3.400000e+000
      vertex   1.122000e+002 1.885000e+001 -4.900001e+000
      vertex   1.122000e+002 2.045000e+001 -1.900000e+000
    endloop
  endfacet
  facet normal 0.000000e+000 0.000000e+000 -1.000000e+000
    outer loop
      vertex   1.157500e+002 8.705000e+001 -4.900001e+000
      vertex   1.122000e+002 8.595000e+001 -4.900001e+000
      vertex   1.122000e+002 8.815000e+001 -4.900001e+000
    endloop
  endfacet
  facet normal 1.000000e+000 0.000000e+000 0.000000e+000
    outer loop
      vertex   1.193000e+002 1.885000e+001 1.907349e-007
      vertex   1.193000e+002 1.585000e+001 -4.900001e+000
      vertex   1.193000e+002 2.045000e+001 -1.900000e+000
    endloop
  endfacet
  facet normal -9.737494e-007 -9.061830e-001 -4.228858e-001
    outer loop
      vertex   1.157500e+002 8.525000e+001 -3.400000e+000
      vertex   1.193000e+002 8.595000e+001 -4.900001e+000
      vertex   1.193000e+002 8.455000e+001 -1.900000e+000
    endloop
  endfacet
  facet normal 0.000000e+000 -9.061838e-001 -4.228839e-001
    outer loop
      vertex   1.157500e+002 8.525000e+001 -3.400000e+000
      vertex   1.122000e+002 8.595000e+001 -4.900001e+000
      vertex   1.193000e+002 8.595000e+001 -4.900001e+000
    endloop
  endfacet
  facet normal 9.940359e-007 -9.061830e-001 -4.228858e-001
    outer loop
      vertex   1.157500e+002 8.525000e+001 -3.400000e+000
      vertex   1.122000e+002 8.455000e+001 -1.900000e+000
      vertex   1.122000e+002 8.595000e+001 -4.900001e+000
    endloop
  endfacet
  facet normal 1.000000e+000 0.000000e+000 0.000000e+000
    outer loop
      vertex   1.193000e+002 1.885000e+001 2.200000e+000
      vertex   1.193000e+002 1.585000e+001 -4.900001e+000
      vertex   1.193000e+002 1.885000e+001 1.907349e-007
    endloop
  endfacet
  facet normal 1.000000e+000 0.000000e+000 0.000000e+000
    outer loop
      vertex   1.193000e+002 1.585000e+001 7.200000e+000
      vertex   1.193000e+002 1.585000e+001 -4.900001e+000
      vertex   1.193000e+002 1.885000e+001 2.200000e+000
    endloop
  endfacet
  facet normal -1.000000e+000 0.000000e+000 0.000000e+000
    outer loop
      vertex   1.122000e+002 2.045000e+001 -1.900000e+000
      vertex   1.122000e+002 1.885000e+001 -4.900001e+000
      vertex   1.122000e+002 1.585000e+001 -4.900001e+000
    endloop
  endfacet
  facet normal -1.000000e+000 -0.000000e+000 0.000000e+000
    outer loop
      vertex   1.122000e+002 1.885000e+001 1.907349e-007
      vertex   1.122000e+002 2.045000e+001 -1.900000e+000
      vertex   1.122000e+002 1.585000e+001 -4.900001e+000
    endloop
  endfacet
  facet normal 1.000000e+000 0.000000e+000 0.000000e+000
    outer loop
      vertex   1.193000e+002 2.045000e+001 -1.900000e+000
      vertex   1.193000e+002 1.585000e+001 -4.900001e+000
      vertex   1.193000e+002 1.885000e+001 -4.900001e+000
    endloop
  endfacet
  facet normal -1.000000e+000 -0.000000e+000 0.000000e+000
    outer loop
      vertex   1.122000e+002 1.885000e+001 2.200000e+000
      vertex   1.122000e+002 1.885000e+001 1.907349e-007
      vertex   1.122000e+002 1.585000e+001 -4.900001e+000
    endloop
  endfacet
  facet normal 0.000000e+000 -1.000000e+000 0.000000e+000
    outer loop
      vertex   1.157500e+002 1.585000e+001 1.150000e+000
      vertex   1.122000e+002 1.585000e+001 7.200000e+000
      vertex   1.122000e+002 1.585000e+001 -4.900001e+000
    endloop
  endfacet
  facet normal 1.000000e+000 -0.000000e+000 0.000000e+000
    outer loop
      vertex   1.193000e+002 8.815000e+001 7.200000e+000
      vertex   1.193000e+002 8.605000e+001 7.200000e+000
      vertex   1.193000e+002 8.815000e+001 -4.900001e+000
    endloop
  endfacet
  facet normal 0.000000e+000 -1.000000e+000 0.000000e+000
    outer loop
      vertex   1.157500e+002 1.585000e+001 1.150000e+000
      vertex   1.193000e+002 1.585000e+001 -4.900001e+000
      vertex   1.193000e+002 1.585000e+001 7.200000e+000
    endloop
  endfacet
  facet normal 0.000000e+000 -1.000000e+000 0.000000e+000
    outer loop
      vertex   1.157500e+002 1.585000e+001 1.150000e+000
      vertex   1.122000e+002 1.585000e+001 -4.900001e+000
      vertex   1.193000e+002 1.585000e+001 -4.900001e+000
    endloop
  endfacet
  facet normal -1.000000e+000 -0.000000e+000 0.000000e+000
    outer loop
      vertex   1.122000e+002 1.585000e+001 7.200000e+000
      vertex   1.122000e+002 1.885000e+001 2.200000e+000
      vertex   1.122000e+002 1.585000e+001 -4.900001e+000
    endloop
  endfacet
  facet normal 1.000000e+000 0.000000e+000 0.000000e+000
    outer loop
      vertex   1.193000e+002 8.815000e+001 -4.900001e+000
      vertex   1.193000e+002 8.455000e+001 -1.900000e+000
      vertex   1.193000e+002 8.595000e+001 -4.900001e+000
    endloop
  endfacet
  facet normal 1.000000e+000 -0.000000e+000 0.000000e+000
    outer loop
      vertex   1.193000e+002 8.455000e+001 1.907349e-007
      vertex   1.193000e+002 8.455000e+001 -1.900000e+000
      vertex   1.193000e+002 8.815000e+001 -4.900001e+000
    endloop
  endfacet
  facet normal -1.000000e+000 0.000000e+000 0.000000e+000
    outer loop
      vertex   1.122000e+002 8.815000e+001 7.200000e+000
      vertex   1.122000e+002 8.815000e+001 -4.900001e+000
      vertex   1.122000e+002 8.605000e+001 7.200000e+000
    endloop
  endfacet
  facet normal 0.000000e+000 0.000000e+000 -1.000000e+000
    outer loop
      vertex   1.157500e+002 8.705000e+001 -4.900001e+000
      vertex   1.122000e+002 8.815000e+001 -4.900001e+000
      vertex   1.193000e+002 8.815000e+001 -4.900001e+000
    endloop
  endfacet
  facet normal 1.000000e+000 -0.000000e+000 0.000000e+000
    outer loop
      vertex   1.193000e+002 8.615000e+001 2.200000e+000
      vertex   1.193000e+002 8.615000e+001 1.907349e-007
      vertex   1.193000e+002 8.815000e+001 -4.900001e+000
    endloop
  endfacet
  facet normal 0.000000e+000 0.000000e+000 -1.000000e+000
    outer loop
      vertex   1.157500e+002 8.705000e+001 -4.900001e+000
      vertex   1.193000e+002 8.595000e+001 -4.900001e+000
      vertex   1.122000e+002 8.595000e+001 -4.900001e+000
    endloop
  endfacet
  facet normal 0.000000e+000 -0.000000e+000 -1.000000e+000
    outer loop
      vertex   1.157500e+002 8.705000e+001 -4.900001e+000
      vertex   1.193000e+002 8.815000e+001 -4.900001e+000
      vertex   1.193000e+002 8.595000e+001 -4.900001e+000
    endloop
  endfacet
  facet normal 0.000000e+000 0.000000e+000 -1.000000e+000
    outer loop
      vertex   1.157500e+002 1.735000e+001 -4.900001e+000
      vertex   1.122000e+002 1.885000e+001 -4.900001e+000
      vertex   1.193000e+002 1.885000e+001 -4.900001e+000
    endloop
  endfacet
  facet normal 0.000000e+000 -0.000000e+000 -1.000000e+000
    outer loop
      vertex   1.157500e+002 1.735000e+001 -4.900001e+000
      vertex   1.193000e+002 1.885000e+001 -4.900001e+000
      vertex   1.193000e+002 1.585000e+001 -4.900001e+000
    endloop
  endfacet
  facet normal 0.000000e+000 0.000000e+000 -1.000000e+000
    outer loop
      vertex   1.157500e+002 1.735000e+001 -4.900001e+000
      vertex   1.193000e+002 1.585000e+001 -4.900001e+000
      vertex   1.122000e+002 1.585000e+001 -4.900001e+000
    endloop
  endfacet
  facet normal 0.000000e+000 0.000000e+000 -1.000000e+000
    outer loop
      vertex   1.157500e+002 1.735000e+001 -4.900001e+000
      vertex   1.122000e+002 1.585000e+001 -4.900001e+000
      vertex   1.122000e+002 1.885000e+001 -4.900001e+000
    endloop
  endfacet
  facet normal 0.000000e+000 1.000000e+000 0.000000e+000
    outer loop
      vertex   1.157500e+002 8.815000e+001 1.150000e+000
      vertex   1.193000e+002 8.815000e+001 -4.900001e+000
      vertex   1.122000e+002 8.815000e+001 -4.900001e+000
    endloop
  endfacet
  facet normal 0.000000e+000 1.000000e+000 0.000000e+000
    outer loop
      vertex   1.157500e+002 8.815000e+001 1.150000e+000
      vertex   1.122000e+002 8.815000e+001 -4.900001e+000
      vertex   1.122000e+002 8.815000e+001 7.200000e+000
    endloop
  endfacet
  facet normal -1.000000e+000 0.000000e+000 0.000000e+000
    outer loop
      vertex   1.122000e+002 8.605000e+001 7.200000e+000
      vertex   1.122000e+002 8.815000e+001 -4.900001e+000
      vertex   1.122000e+002 8.605000e+001 5.200000e+000
    endloop
  endfacet
  facet normal 0.000000e+000 1.000000e+000 0.000000e+000
    outer loop
      vertex   1.157500e+002 8.815000e+001 1.150000e+000
      vertex   1.193000e+002 8.815000e+001 7.200000e+000
      vertex   1.193000e+002 8.815000e+001 -4.900001e+000
    endloop
  endfacet
  facet normal -2.567886e-007 8.823529e-001 -4.705883e-001
    outer loop
      vertex   1.157500e+002 1.965000e+001 -3.400000e+000
      vertex   1.193000e+002 2.045000e+001 -1.900000e+000
      vertex   1.193000e+002 1.885000e+001 -4.900001e+000
    endloop
  endfacet
  facet normal 0.000000e+000 8.823531e-001 -4.705878e-001
    outer loop
      vertex   1.157500e+002 1.965000e+001 -3.400000e+000
      vertex   1.193000e+002 1.885000e+001 -4.900001e+000
      vertex   1.122000e+002 1.885000e+001 -4.900001e+000
    endloop
  endfacet
  facet normal 1.000000e+000 -0.000000e+000 0.000000e+000
    outer loop
      vertex   1.193000e+002 8.605000e+001 7.200000e+000
      vertex   1.193000e+002 8.605000e+001 5.200000e+000
      vertex   1.193000e+002 8.815000e+001 -4.900001e+000
    endloop
  endfacet
  facet normal 1.000000e+000 -0.000000e+000 -0.000000e+000
    outer loop
      vertex   1.193000e+002 8.605000e+001 5.200000e+000
      vertex   1.193000e+002 8.615000e+001 2.200000e+000
      vertex   1.193000e+002 8.815000e+001 -4.900001e+000
    endloop
  endfacet
  facet normal -1.000000e+000 0.000000e+000 0.000000e+000
    outer loop
      vertex   1.122000e+002 8.605000e+001 5.200000e+000
      vertex   1.122000e+002 8.815000e+001 -4.900001e+000
      vertex   1.122000e+002 8.615000e+001 2.200000e+000
    endloop
  endfacet
  facet normal -1.000000e+000 0.000000e+000 0.000000e+000
    outer loop
      vertex   1.122000e+002 8.615000e+001 2.200000e+000
      vertex   1.122000e+002 8.815000e+001 -4.900001e+000
      vertex   1.122000e+002 8.615000e+001 1.907349e-007
    endloop
  endfacet
  facet normal -1.000000e+000 0.000000e+000 0.000000e+000
    outer loop
      vertex   1.122000e+002 8.615000e+001 1.907349e-007
      vertex   1.122000e+002 8.815000e+001 -4.900001e+000
      vertex   1.122000e+002 8.455000e+001 1.907349e-007
    endloop
  endfacet
  facet normal -1.000000e+000 0.000000e+000 0.000000e+000
    outer loop
      vertex   1.122000e+002 8.455000e+001 1.907349e-007
      vertex   1.122000e+002 8.815000e+001 -4.900001e+000
      vertex   1.122000e+002 8.455000e+001 -1.900000e+000
    endloop
  endfacet
  facet normal -1.000000e+000 0.000000e+000 0.000000e+000
    outer loop
      vertex   1.122000e+002 8.815000e+001 -4.900001e+000
      vertex   1.122000e+002 8.595000e+001 -4.900001e+000
      vertex   1.122000e+002 8.455000e+001 -1.900000e+000
    endloop
  endfacet
  facet normal 1.000000e+000 -0.000000e+000 0.000000e+000
    outer loop
      vertex   1.193000e+002 8.615000e+001 1.907349e-007
      vertex   1.193000e+002 8.455000e+001 1.907349e-007
      vertex   1.193000e+002 8.815000e+001 -4.900001e+000
    endloop
  endfacet
  facet normal 0.000000e+000 8.823527e-001 -4.705888e-001
    outer loop
      vertex   1.157500e+002 1.965000e+001 -3.400000e+000
      vertex   1.122000e+002 2.045000e+001 -1.900000e+000
      vertex   1.193000e+002 2.045000e+001 -1.900000e+000
    endloop
  endfacet
  facet normal -0.000000e+000 -9.061821e-001 -4.228877e-001
    outer loop
      vertex   1.157500e+002 8.525000e+001 -3.400000e+000
      vertex   1.193000e+002 8.455000e+001 -1.900000e+000
      vertex   1.122000e+002 8.455000e+001 -1.900000e+000
    endloop
  endfacet
  facet normal 0.000000e+000 -1.000000e+000 0.000000e+000
    outer loop
      vertex   1.157500e+002 8.455000e+001 -9.499996e-001
      vertex   1.193000e+002 8.455000e+001 -1.900000e+000
      vertex   1.193000e+002 8.455000e+001 1.907349e-007
    endloop
  endfacet
  facet normal 0.000000e+000 -1.000000e+000 0.000000e+000
    outer loop
      vertex   1.157500e+002 8.455000e+001 -9.499996e-001
      vertex   1.122000e+002 8.455000e+001 -1.900000e+000
      vertex   1.193000e+002 8.455000e+001 -1.900000e+000
    endloop
  endfacet
  facet normal 1.000000e+000 -0.000000e+000 0.000000e+000
    outer loop
      vertex   1.193000e+002 2.045000e+001 1.907349e-007
      vertex   1.193000e+002 1.885000e+001 1.907349e-007
      vertex   1.193000e+002 2.045000e+001 -1.900000e+000
    endloop
  endfacet
  facet normal 0.000000e+000 -1.000000e+000 0.000000e+000
    outer loop
      vertex   1.157500e+002 8.455000e+001 -9.499996e-001
      vertex   1.122000e+002 8.455000e+001 1.907349e-007
      vertex   1.122000e+002 8.455000e+001 -1.900000e+000
    endloop
  endfacet
  facet normal -1.000000e+000 0.000000e+000 0.000000e+000
    outer loop
      vertex   1.122000e+002 2.045000e+001 1.907349e-007
      vertex   1.122000e+002 2.045000e+001 -1.900000e+000
      vertex   1.122000e+002 1.885000e+001 1.907349e-007
    endloop
  endfacet
  facet normal 0.000000e+000 1.000000e+000 0.000000e+000
    outer loop
      vertex   1.157500e+002 2.045000e+001 -9.499996e-001
      vertex   1.193000e+002 2.045000e+001 -1.900000e+000
      vertex   1.122000e+002 2.045000e+001 -1.900000e+000
    endloop
  endfacet
  facet normal 0.000000e+000 1.000000e+000 0.000000e+000
    outer loop
      vertex   1.157500e+002 2.045000e+001 -9.499996e-001
      vertex   1.122000e+002 2.045000e+001 -1.900000e+000
      vertex   1.122000e+002 2.045000e+001 1.907349e-007
    endloop
  endfacet
  facet normal 0.000000e+000 1.000000e+000 0.000000e+000
    outer loop
      vertex   1.157500e+002 2.045000e+001 -9.499996e-001
      vertex   1.193000e+002 2.045000e+001 1.907349e-007
      vertex   1.193000e+002 2.045000e+001 -1.900000e+000
    endloop
  endfacet
  facet normal -0.000000e+000 -1.000000e+000 0.000000e+000
    outer loop
      vertex   1.157500e+002 8.455000e+001 -9.499996e-001
      vertex   1.193000e+002 8.455000e+001 1.907349e-007
      vertex   1.122000e+002 8.455000e+001 1.907349e-007
    endloop
  endfacet
  facet normal -0.000000e+000 1.000000e+000 0.000000e+000
    outer loop
      vertex   1.157500e+002 2.045000e+001 -9.499996e-001
      vertex   1.122000e+002 2.045000e+001 1.907349e-007
      vertex   1.193000e+002 2.045000e+001 1.907349e-007
    endloop
  endfacet
  facet normal 0.000000e+000 0.000000e+000 1.000000e+000
    outer loop
      vertex   1.157500e+002 1.965000e+001 1.907349e-007
      vertex   1.122000e+002 1.885000e+001 1.907349e-007
      vertex   1.193000e+002 1.885000e+001 1.907349e-007
    endloop
  endfacet
  facet normal 0.000000e+000 0.000000e+000 1.000000e+000
    outer loop
      vertex   1.157500e+002 8.535000e+001 1.907349e-007
      vertex   1.193000e+002 8.615000e+001 1.907349e-007
      vertex   1.122000e+002 8.615000e+001 1.907349e-007
    endloop
  endfacet
  facet normal 0.000000e+000 0.000000e+000 1.000000e+000
    outer loop
      vertex   1.157500e+002 8.535000e+001 1.907349e-007
      vertex   1.122000e+002 8.615000e+001 1.907349e-007
      vertex   1.122000e+002 8.455000e+001 1.907349e-007
    endloop
  endfacet
  facet normal 0.000000e+000 0.000000e+000 1.000000e+000
    outer loop
      vertex   1.157500e+002 1.965000e+001 1.907349e-007
      vertex   1.193000e+002 2.045000e+001 1.907349e-007
      vertex   1.122000e+002 2.045000e+001 1.907349e-007
    endloop
  endfacet
  facet normal 0.000000e+000 -0.000000e+000 1.000000e+000
    outer loop
      vertex   1.157500e+002 1.965000e+001 1.907349e-007
      vertex   1.193000e+002 1.885000e+001 1.907349e-007
      vertex   1.193000e+002 2.045000e+001 1.907349e-007
    endloop
  endfacet
  facet normal 0.000000e+000 1.000000e+000 0.000000e+000
    outer loop
      vertex   1.157500e+002 1.885000e+001 1.100000e+000
      vertex   1.193000e+002 1.885000e+001 2.200000e+000
      vertex   1.193000e+002 1.885000e+001 1.907349e-007
    endloop
  endfacet
  facet normal 0.000000e+000 1.000000e+000 0.000000e+000
    outer loop
      vertex   1.157500e+002 1.885000e+001 1.100000e+000
      vertex   1.122000e+002 1.885000e+001 1.907349e-007
      vertex   1.122000e+002 1.885000e+001 2.200000e+000
    endloop
  endfacet
  facet normal 0.000000e+000 -1.000000e+000 0.000000e+000
    outer loop
      vertex   1.157500e+002 8.615000e+001 1.100000e+000
      vertex   1.122000e+002 8.615000e+001 1.907349e-007
      vertex   1.193000e+002 8.615000e+001 1.907349e-007
    endloop
  endfacet
  facet normal 0.000000e+000 -1.000000e+000 0.000000e+000
    outer loop
      vertex   1.157500e+002 8.615000e+001 1.100000e+000
      vertex   1.122000e+002 8.615000e+001 2.200000e+000
      vertex   1.122000e+002 8.615000e+001 1.907349e-007
    endloop
  endfacet
  facet normal 0.000000e+000 1.000000e+000 0.000000e+000
    outer loop
      vertex   1.157500e+002 1.885000e+001 1.100000e+000
      vertex   1.193000e+002 1.885000e+001 1.907349e-007
      vertex   1.122000e+002 1.885000e+001 1.907349e-007
    endloop
  endfacet
  facet normal 0.000000e+000 0.000000e+000 1.000000e+000
    outer loop
      vertex   1.157500e+002 1.965000e+001 1.907349e-007
      vertex   1.122000e+002 2.045000e+001 1.907349e-007
      vertex   1.122000e+002 1.885000e+001 1.907349e-007
    endloop
  endfacet
  facet normal 0.000000e+000 -1.000000e+000 0.000000e+000
    outer loop
      vertex   1.157500e+002 8.615000e+001 1.100000e+000
      vertex   1.193000e+002 8.615000e+001 1.907349e-007
      vertex   1.193000e+002 8.615000e+001 2.200000e+000
    endloop
  endfacet
  facet normal 0.000000e+000 -0.000000e+000 1.000000e+000
    outer loop
      vertex   1.157500e+002 8.535000e+001 1.907349e-007
      vertex   1.193000e+002 8.455000e+001 1.907349e-007
      vertex   1.193000e+002 8.615000e+001 1.907349e-007
    endloop
  endfacet
  facet normal 0.000000e+000 0.000000e+000 1.000000e+000
    outer loop
      vertex   1.157500e+002 8.535000e+001 1.907349e-007
      vertex   1.122000e+002 8.455000e+001 1.907349e-007
      vertex   1.193000e+002 8.455000e+001 1.907349e-007
    endloop
  endfacet
  facet normal -0.000000e+000 -1.000000e+000 0.000000e+000
    outer loop
      vertex   1.157500e+002 8.615000e+001 1.100000e+000
      vertex   1.193000e+002 8.615000e+001 2.200000e+000
      vertex   1.122000e+002 8.615000e+001 2.200000e+000
    endloop
  endfacet
  facet normal -0.000000e+000 1.000000e+000 0.000000e+000
    outer loop
      vertex   1.157500e+002 1.885000e+001 1.100000e+000
      vertex   1.122000e+002 1.885000e+001 2.200000e+000
      vertex   1.193000e+002 1.885000e+001 2.200000e+000
    endloop
  endfacet
  facet normal -0.000000e+000 1.000000e+000 0.000000e+000
    outer loop
      vertex   1.157500e+002 8.815000e+001 1.150000e+000
      vertex   1.122000e+002 8.815000e+001 7.200000e+000
      vertex   1.193000e+002 8.815000e+001 7.200000e+000
    endloop
  endfacet
  facet normal -0.000000e+000 -1.000000e+000 0.000000e+000
    outer loop
      vertex   1.157500e+002 1.585000e+001 1.150000e+000
      vertex   1.193000e+002 1.585000e+001 7.200000e+000
      vertex   1.122000e+002 1.585000e+001 7.200000e+000
    endloop
  endfacet
  facet normal 1.000000e+000 0.000000e+000 -0.000000e+000
    outer loop
      vertex   1.272000e+002 5.247500e+001 4.400000e+000
      vertex   1.272000e+002 8.605000e+001 1.600000e+000
      vertex   1.272000e+002 8.605000e+001 7.200000e+000
    endloop
  endfacet
  facet normal 1.000000e+000 0.000000e+000 0.000000e+000
    outer loop
      vertex   1.272000e+002 5.247500e+001 4.400000e+000
      vertex   1.272000e+002 1.890000e+001 1.600000e+000
      vertex   1.272000e+002 8.605000e+001 1.600000e+000
    endloop
  endfacet
  facet normal -1.000000e+000 0.000000e+000 0.000000e+000
    outer loop
      vertex   1.250000e+002 5.247500e+001 3.400000e+000
      vertex   1.250000e+002 8.605000e+001 1.600000e+000
      vertex   1.250000e+002 1.890000e+001 1.600000e+000
    endloop
  endfacet
  facet normal 0.000000e+000 -1.000000e+000 0.000000e+000
    outer loop
      vertex   1.250000e+002 1.890000e+001 5.200000e+000
      vertex   1.250000e+002 1.890000e+001 1.600000e+000
      vertex   1.272000e+002 1.890000e+001 1.600000e+000
    endloop
  endfacet
  facet normal -1.000000e+000 0.000000e+000 -0.000000e+000
    outer loop
      vertex   1.250000e+002 5.247500e+001 3.400000e+000
      vertex   1.250000e+002 8.605000e+001 5.200000e+000
      vertex   1.250000e+002 8.605000e+001 1.600000e+000
    endloop
  endfacet
  facet normal 0.000000e+000 -1.000000e+000 0.000000e+000
    outer loop
      vertex   1.272000e+002 1.890000e+001 7.200000e+000
      vertex   1.250000e+002 1.890000e+001 5.200000e+000
      vertex   1.272000e+002 1.890000e+001 1.600000e+000
    endloop
  endfacet
  facet normal -1.000000e+000 0.000000e+000 0.000000e+000
    outer loop
      vertex   1.250000e+002 5.247500e+001 3.400000e+000
      vertex   1.250000e+002 1.890000e+001 1.600000e+000
      vertex   1.250000e+002 1.890000e+001 5.200000e+000
    endloop
  endfacet
  facet normal 0.000000e+000 0.000000e+000 -1.000000e+000
    outer loop
      vertex   1.261000e+002 5.247500e+001 1.600000e+000
      vertex   1.272000e+002 1.890000e+001 1.600000e+000
      vertex   1.250000e+002 1.890000e+001 1.600000e+000
    endloop
  endfacet
  facet normal 1.000000e+000 0.000000e+000 0.000000e+000
    outer loop
      vertex   1.272000e+002 5.247500e+001 4.400000e+000
      vertex   1.272000e+002 1.890000e+001 7.200000e+000
      vertex   1.272000e+002 1.890000e+001 1.600000e+000
    endloop
  endfacet
  facet normal 0.000000e+000 -0.000000e+000 -1.000000e+000
    outer loop
      vertex   1.261000e+002 5.247500e+001 1.600000e+000
      vertex   1.272000e+002 8.605000e+001 1.600000e+000
      vertex   1.272000e+002 1.890000e+001 1.600000e+000
    endloop
  endfacet
  facet normal 0.000000e+000 0.000000e+000 -1.000000e+000
    outer loop
      vertex   1.261000e+002 5.247500e+001 1.600000e+000
      vertex   1.250000e+002 1.890000e+001 1.600000e+000
      vertex   1.250000e+002 8.605000e+001 1.600000e+000
    endloop
  endfacet
  facet normal 0.000000e+000 1.000000e+000 0.000000e+000
    outer loop
      vertex   1.250000e+002 8.605000e+001 5.200000e+000
      vertex   1.272000e+002 8.605000e+001 1.600000e+000
      vertex   1.250000e+002 8.605000e+001 1.600000e+000
    endloop
  endfacet
  facet normal 0.000000e+000 1.000000e+000 -0.000000e+000
    outer loop
      vertex   1.272000e+002 8.605000e+001 7.200000e+000
      vertex   1.272000e+002 8.605000e+001 1.600000e+000
      vertex   1.250000e+002 8.605000e+001 5.200000e+000
    endloop
  endfacet
  facet normal 0.000000e+000 0.000000e+000 -1.000000e+000
    outer loop
      vertex   1.261000e+002 5.247500e+001 1.600000e+000
      vertex   1.250000e+002 8.605000e+001 1.600000e+000
      vertex   1.272000e+002 8.605000e+001 1.600000e+000
    endloop
  endfacet
  facet normal 3.165958e-008 -7.071067e-001 -7.071068e-001
    outer loop
      vertex   1.157500e+002 8.465000e+001 3.700000e+000
      vertex   1.122000e+002 8.315000e+001 5.200000e+000
      vertex   1.122000e+002 8.615000e+001 2.200000e+000
    endloop
  endfacet
  facet normal 1.000000e+000 -0.000000e+000 0.000000e+000
    outer loop
      vertex   1.193000e+002 2.185000e+001 5.200000e+000
      vertex   1.193000e+002 1.890000e+001 5.200000e+000
      vertex   1.193000e+002 1.885000e+001 2.200000e+000
    endloop
  endfacet
  facet normal 3.165958e-008 7.071067e-001 -7.071068e-001
    outer loop
      vertex   1.157500e+002 2.035000e+001 3.700000e+000
      vertex   1.122000e+002 1.885000e+001 2.200000e+000
      vertex   1.122000e+002 2.185000e+001 5.200000e+000
    endloop
  endfacet
  facet normal -3.165958e-008 7.071067e-001 -7.071068e-001
    outer loop
      vertex   1.157500e+002 2.035000e+001 3.700000e+000
      vertex   1.193000e+002 2.185000e+001 5.200000e+000
      vertex   1.193000e+002 1.885000e+001 2.200000e+000
    endloop
  endfacet
  facet normal 0.000000e+000 7.071068e-001 -7.071068e-001
    outer loop
      vertex   1.157500e+002 2.035000e+001 3.700000e+000
      vertex   1.193000e+002 1.885000e+001 2.200000e+000
      vertex   1.122000e+002 1.885000e+001 2.200000e+000
    endloop
  endfacet
  facet normal 1.000000e+000 -0.000000e+000 0.000000e+000
    outer loop
      vertex   1.193000e+002 8.605000e+001 5.200000e+000
      vertex   1.193000e+002 8.315000e+001 5.200000e+000
      vertex   1.193000e+002 8.615000e+001 2.200000e+000
    endloop
  endfacet
  facet normal -1.000000e+000 0.000000e+000 0.000000e+000
    outer loop
      vertex   1.122000e+002 2.185000e+001 5.200000e+000
      vertex   1.122000e+002 1.885000e+001 2.200000e+000
      vertex   1.122000e+002 1.890000e+001 5.200000e+000
    endloop
  endfacet
  facet normal -1.000000e+000 0.000000e+000 0.000000e+000
    outer loop
      vertex   1.122000e+002 1.890000e+001 5.200000e+000
      vertex   1.122000e+002 1.885000e+001 2.200000e+000
      vertex   1.122000e+002 1.585000e+001 7.200000e+000
    endloop
  endfacet
  facet normal 0.000000e+000 -7.071068e-001 -7.071068e-001
    outer loop
      vertex   1.157500e+002 8.465000e+001 3.700000e+000
      vertex   1.122000e+002 8.615000e+001 2.200000e+000
      vertex   1.193000e+002 8.615000e+001 2.200000e+000
    endloop
  endfacet
  facet normal 1.000000e+000 0.000000e+000 0.000000e+000
    outer loop
      vertex   1.193000e+002 1.890000e+001 5.200000e+000
      vertex   1.193000e+002 1.585000e+001 7.200000e+000
      vertex   1.193000e+002 1.885000e+001 2.200000e+000
    endloop
  endfacet
  facet normal -3.165958e-008 -7.071067e-001 -7.071068e-001
    outer loop
      vertex   1.157500e+002 8.465000e+001 3.700000e+000
      vertex   1.193000e+002 8.615000e+001 2.200000e+000
      vertex   1.193000e+002 8.315000e+001 5.200000e+000
    endloop
  endfacet
  facet normal -1.000000e+000 0.000000e+000 0.000000e+000
    outer loop
      vertex   1.122000e+002 8.605000e+001 5.200000e+000
      vertex   1.122000e+002 8.615000e+001 2.200000e+000
      vertex   1.122000e+002 8.315000e+001 5.200000e+000
    endloop
  endfacet
  facet normal -1.000000e+000 0.000000e+000 0.000000e+000
    outer loop
      vertex   1.250000e+002 5.247500e+001 3.400000e+000
      vertex   1.250000e+002 1.890000e+001 5.200000e+000
      vertex   1.250000e+002 8.605000e+001 5.200000e+000
    endloop
  endfacet
  facet normal 0.000000e+000 7.071068e-001 -7.071069e-001
    outer loop
      vertex   1.157500e+002 2.035000e+001 3.700000e+000
      vertex   1.122000e+002 2.185000e+001 5.200000e+000
      vertex   1.193000e+002 2.185000e+001 5.200000e+000
    endloop
  endfacet
  facet normal -0.000000e+000 -7.071068e-001 -7.071069e-001
    outer loop
      vertex   1.157500e+002 8.465000e+001 3.700000e+000
      vertex   1.193000e+002 8.315000e+001 5.200000e+000
      vertex   1.122000e+002 8.315000e+001 5.200000e+000
    endloop
  endfacet
  facet normal 1.000000e+000 0.000000e+000 0.000000e+000
    outer loop
      vertex   1.272000e+002 5.247500e+001 4.400000e+000
      vertex   1.272000e+002 8.605000e+001 7.200000e+000
      vertex   1.272000e+002 1.890000e+001 7.200000e+000
    endloop
  endfacet
  facet normal 0.000000e+000 0.000000e+000 -1.000000e+000
    outer loop
      vertex   1.250000e+002 1.890000e+001 5.200000e+000
      vertex   1.193000e+002 1.890000e+001 5.200000e+000
      vertex   1.193000e+002 2.185000e+001 5.200000e+000
    endloop
  endfacet
  facet normal 0.000000e+000 0.000000e+000 -1.000000e+000
    outer loop
      vertex   1.076000e+002 8.605000e+001 5.200000e+000
      vertex   1.250000e+002 1.890000e+001 5.200000e+000
      vertex   1.193000e+002 2.185000e+001 5.200000e+000
    endloop
  endfacet
  facet normal 0.000000e+000 0.000000e+000 -1.000000e+000
    outer loop
      vertex   1.076000e+002 8.605000e+001 5.200000e+000
      vertex   1.193000e+002 2.185000e+001 5.200000e+000
      vertex   1.122000e+002 2.185000e+001 5.200000e+000
    endloop
  endfacet
  facet normal 0.000000e+000 0.000000e+000 -1.000000e+000
    outer loop
      vertex   1.122000e+002 2.185000e+001 5.200000e+000
      vertex   1.122000e+002 1.890000e+001 5.200000e+000
      vertex   1.076000e+002 1.890000e+001 5.200000e+000
    endloop
  endfacet
  facet normal -0.000000e+000 0.000000e+000 -1.000000e+000
    outer loop
      vertex   1.076000e+002 8.605000e+001 5.200000e+000
      vertex   1.122000e+002 2.185000e+001 5.200000e+000
      vertex   1.076000e+002 1.890000e+001 5.200000e+000
    endloop
  endfacet
  facet normal 0.000000e+000 0.000000e+000 -1.000000e+000
    outer loop
      vertex   1.122000e+002 8.315000e+001 5.200000e+000
      vertex   1.250000e+002 1.890000e+001 5.200000e+000
      vertex   1.076000e+002 8.605000e+001 5.200000e+000
    endloop
  endfacet
  facet normal 0.000000e+000 0.000000e+000 -1.000000e+000
    outer loop
      vertex   1.122000e+002 8.605000e+001 5.200000e+000
      vertex   1.122000e+002 8.315000e+001 5.200000e+000
      vertex   1.076000e+002 8.605000e+001 5.200000e+000
    endloop
  endfacet
  facet normal 0.000000e+000 0.000000e+000 -1.000000e+000
    outer loop
      vertex   1.193000e+002 8.315000e+001 5.200000e+000
      vertex   1.250000e+002 1.890000e+001 5.200000e+000
      vertex   1.122000e+002 8.315000e+001 5.200000e+000
    endloop
  endfacet
  facet normal 0.000000e+000 0.000000e+000 -1.000000e+000
    outer loop
      vertex   1.193000e+002 8.605000e+001 5.200000e+000
      vertex   1.250000e+002 1.890000e+001 5.200000e+000
      vertex   1.193000e+002 8.315000e+001 5.200000e+000
    endloop
  endfacet
  facet normal 0.000000e+000 0.000000e+000 -1.000000e+000
    outer loop
      vertex   1.250000e+002 8.605000e+001 5.200000e+000
      vertex   1.250000e+002 1.890000e+001 5.200000e+000
      vertex   1.193000e+002 8.605000e+001 5.200000e+000
    endloop
  endfacet
  facet normal 1.000000e+000 -0.000000e+000 0.000000e+000
    outer loop
      vertex   1.193000e+002 1.890000e+001 7.200000e+000
      vertex   1.193000e+002 1.585000e+001 7.200000e+000
      vertex   1.193000e+002 1.890000e+001 5.200000e+000
    endloop
  endfacet
  facet normal 0.000000e+000 -1.000000e+000 0.000000e+000
    outer loop
      vertex   1.250000e+002 1.890000e+001 5.200000e+000
      vertex   1.193000e+002 1.890000e+001 7.200000e+000
      vertex   1.193000e+002 1.890000e+001 5.200000e+000
    endloop
  endfacet
  facet normal 0.000000e+000 -1.000000e+000 0.000000e+000
    outer loop
      vertex   1.272000e+002 1.890000e+001 7.200000e+000
      vertex   1.193000e+002 1.890000e+001 7.200000e+000
      vertex   1.250000e+002 1.890000e+001 5.200000e+000
    endloop
  endfacet
  facet normal -1.000000e+000 0.000000e+000 -0.000000e+000
    outer loop
      vertex   1.076000e+002 5.247500e+001 6.200000e+000
      vertex   1.076000e+002 8.605000e+001 7.200000e+000
      vertex   1.076000e+002 8.605000e+001 5.200000e+000
    endloop
  endfacet
  facet normal 0.000000e+000 1.000000e+000 0.000000e+000
    outer loop
      vertex   1.250000e+002 8.605000e+001 5.200000e+000
      vertex   1.193000e+002 8.605000e+001 5.200000e+000
      vertex   1.193000e+002 8.605000e+001 7.200000e+000
    endloop
  endfacet
  facet normal 0.000000e+000 -1.000000e+000 0.000000e+000
    outer loop
      vertex   1.099000e+002 1.890000e+001 6.200000e+000
      vertex   1.076000e+002 1.890000e+001 7.200000e+000
      vertex   1.076000e+002 1.890000e+001 5.200000e+000
    endloop
  endfacet
  facet normal 0.000000e+000 -1.000000e+000 0.000000e+000
    outer loop
      vertex   1.099000e+002 1.890000e+001 6.200000e+000
      vertex   1.076000e+002 1.890000e+001 5.200000e+000
      vertex   1.122000e+002 1.890000e+001 5.200000e+000
    endloop
  endfacet
  facet normal 0.000000e+000 -1.000000e+000 0.000000e+000
    outer loop
      vertex   1.099000e+002 1.890000e+001 6.200000e+000
      vertex   1.122000e+002 1.890000e+001 5.200000e+000
      vertex   1.122000e+002 1.890000e+001 7.200000e+000
    endloop
  endfacet
  facet normal 0.000000e+000 1.000000e+000 0.000000e+000
    outer loop
      vertex   1.099000e+002 8.605000e+001 6.200000e+000
      vertex   1.122000e+002 8.605000e+001 7.200000e+000
      vertex   1.122000e+002 8.605000e+001 5.200000e+000
    endloop
  endfacet
  facet normal -1.000000e+000 0.000000e+000 0.000000e+000
    outer loop
      vertex   1.122000e+002 1.890000e+001 7.200000e+000
      vertex   1.122000e+002 1.890000e+001 5.200000e+000
      vertex   1.122000e+002 1.585000e+001 7.200000e+000
    endloop
  endfacet
  facet normal 0.000000e+000 1.000000e+000 0.000000e+000
    outer loop
      vertex   1.099000e+002 8.605000e+001 6.200000e+000
      vertex   1.122000e+002 8.605000e+001 5.200000e+000
      vertex   1.076000e+002 8.605000e+001 5.200000e+000
    endloop
  endfacet
  facet normal 0.000000e+000 1.000000e+000 -0.000000e+000
    outer loop
      vertex   1.272000e+002 8.605000e+001 7.200000e+000
      vertex   1.250000e+002 8.605000e+001 5.200000e+000
      vertex   1.193000e+002 8.605000e+001 7.200000e+000
    endloop
  endfacet
  facet normal 0.000000e+000 1.000000e+000 0.000000e+000
    outer loop
      vertex   1.099000e+002 8.605000e+001 6.200000e+000
      vertex   1.076000e+002 8.605000e+001 5.200000e+000
      vertex   1.076000e+002 8.605000e+001 7.200000e+000
    endloop
  endfacet
  facet normal -1.000000e+000 0.000000e+000 0.000000e+000
    outer loop
      vertex   1.076000e+002 5.247500e+001 6.200000e+000
      vertex   1.076000e+002 8.605000e+001 5.200000e+000
      vertex   1.076000e+002 1.890000e+001 5.200000e+000
    endloop
  endfacet
  facet normal -1.000000e+000 0.000000e+000 0.000000e+000
    outer loop
      vertex   1.076000e+002 5.247500e+001 6.200000e+000
      vertex   1.076000e+002 1.890000e+001 5.200000e+000
      vertex   1.076000e+002 1.890000e+001 7.200000e+000
    endloop
  endfacet
  facet normal -1.000000e+000 0.000000e+000 0.000000e+000
    outer loop
      vertex   1.076000e+002 5.247500e+001 6.200000e+000
      vertex   1.076000e+002 1.890000e+001 7.200000e+000
      vertex   1.076000e+002 8.605000e+001 7.200000e+000
    endloop
  endfacet
  facet normal -0.000000e+000 -1.000000e+000 0.000000e+000
    outer loop
      vertex   1.099000e+002 1.890000e+001 6.200000e+000
      vertex   1.122000e+002 1.890000e+001 7.200000e+000
      vertex   1.076000e+002 1.890000e+001 7.200000e+000
    endloop
  endfacet
  facet normal -0.000000e+000 1.000000e+000 0.000000e+000
    outer loop
      vertex   1.099000e+002 8.605000e+001 6.200000e+000
      vertex   1.076000e+002 8.605000e+001 7.200000e+000
      vertex   1.122000e+002 8.605000e+001 7.200000e+000
    endloop
  endfacet
  facet normal -0.000000e+000 0.000000e+000 1.000000e+000
    outer loop
      vertex   1.193000e+002 1.890000e+001 7.200000e+000
      vertex   1.122000e+002 1.890000e+001 7.200000e+000
      vertex   1.193000e+002 1.585000e+001 7.200000e+000
    endloop
  endfacet
  facet normal 0.000000e+000 0.000000e+000 1.000000e+000
    outer loop
      vertex   1.193000e+002 1.585000e+001 7.200000e+000
      vertex   1.122000e+002 1.890000e+001 7.200000e+000
      vertex   1.122000e+002 1.585000e+001 7.200000e+000
    endloop
  endfacet
  facet normal -0.000000e+000 0.000000e+000 1.000000e+000
    outer loop
      vertex   1.193000e+002 8.815000e+001 7.200000e+000
      vertex   1.122000e+002 8.815000e+001 7.200000e+000
      vertex   1.193000e+002 8.605000e+001 7.200000e+000
    endloop
  endfacet
  facet normal 0.000000e+000 0.000000e+000 1.000000e+000
    outer loop
      vertex   1.076000e+002 8.605000e+001 7.200000e+000
      vertex   1.076000e+002 1.890000e+001 7.200000e+000
      vertex   1.193000e+002 1.890000e+001 7.200000e+000
    endloop
  endfacet
  facet normal -0.000000e+000 0.000000e+000 1.000000e+000
    outer loop
      vertex   1.122000e+002 8.605000e+001 7.200000e+000
      vertex   1.076000e+002 8.605000e+001 7.200000e+000
      vertex   1.272000e+002 1.890000e+001 7.200000e+000
    endloop
  endfacet
  facet normal -0.000000e+000 0.000000e+000 1.000000e+000
    outer loop
      vertex   1.122000e+002 8.815000e+001 7.200000e+000
      vertex   1.122000e+002 8.605000e+001 7.200000e+000
      vertex   1.272000e+002 1.890000e+001 7.200000e+000
    endloop
  endfacet
  facet normal 0.000000e+000 0.000000e+000 1.000000e+000
    outer loop
      vertex   1.193000e+002 8.605000e+001 7.200000e+000
      vertex   1.122000e+002 8.815000e+001 7.200000e+000
      vertex   1.272000e+002 1.890000e+001 7.200000e+000
    endloop
  endfacet
  facet normal 0.000000e+000 -0.000000e+000 1.000000e+000
    outer loop
      vertex   1.076000e+002 8.605000e+001 7.200000e+000
      vertex   1.193000e+002 1.890000e+001 7.200000e+000
      vertex   1.272000e+002 1.890000e+001 7.200000e+000
    endloop
  endfacet
  facet normal -0.000000e+000 0.000000e+000 1.000000e+000
    outer loop
      vertex   1.272000e+002 8.605000e+001 7.200000e+000
      vertex   1.193000e+002 8.605000e+001 7.200000e+000
      vertex   1.272000e+002 1.890000e+001 7.200000e+000
    endloop
  endfacet
  facet normal 0.000000e+000 0.000000e+000 1.000000e+000
    outer loop
      vertex   1.193000e+002 1.890000e+001 7.200000e+000
      vertex   1.076000e+002 1.890000e+001 7.200000e+000
      vertex   1.122000e+002 1.890000e+001 7.200000e+000
    endloop
  endfacet
endsolid
